<?xml version="1.0" encoding="UTF-8"?>
<svg xmlns="http://www.w3.org/2000/svg" version="1.1" width="500" height="500" viewBox="0 0 500 500"><rect x="0" y="0" width="500" height="500" fill="#ffffff"/><g transform="scale(5.263)"><g transform="translate(1,1)"><path fill-rule="evenodd" d="M9 0L9 2L8 2L8 4L9 4L9 6L8 6L8 7L9 7L9 6L10 6L10 7L11 7L11 5L12 5L12 7L13 7L13 5L14 5L14 7L15 7L15 8L14 8L14 9L13 9L13 11L12 11L12 10L11 10L11 13L12 13L12 14L11 14L11 18L10 18L10 19L9 19L9 18L5 18L5 17L7 17L7 16L4 16L4 15L8 15L8 17L10 17L10 15L8 15L8 14L10 14L10 13L9 13L9 12L10 12L10 10L9 10L9 9L12 9L12 8L9 8L9 9L8 9L8 8L6 8L6 9L5 9L5 8L3 8L3 9L1 9L1 11L0 11L0 12L1 12L1 14L0 14L0 16L1 16L1 18L0 18L0 19L1 19L1 20L2 20L2 19L3 19L3 18L5 18L5 20L4 20L4 21L3 21L3 23L2 23L2 25L1 25L1 26L0 26L0 27L1 27L1 26L2 26L2 27L3 27L3 28L2 28L2 29L0 29L0 30L1 30L1 31L0 31L0 32L1 32L1 31L3 31L3 34L2 34L2 33L1 33L1 34L0 34L0 40L1 40L1 39L2 39L2 38L3 38L3 39L4 39L4 40L2 40L2 41L0 41L0 43L1 43L1 42L2 42L2 44L0 44L0 45L1 45L1 46L0 46L0 47L3 47L3 51L4 51L4 48L6 48L6 49L5 49L5 50L6 50L6 51L5 51L5 52L6 52L6 53L8 53L8 54L5 54L5 53L4 53L4 52L3 52L3 53L1 53L1 54L5 54L5 55L2 55L2 56L1 56L1 55L0 55L0 56L1 56L1 58L2 58L2 57L3 57L3 58L4 58L4 59L3 59L3 60L2 60L2 62L0 62L0 64L1 64L1 63L3 63L3 61L4 61L4 64L5 64L5 63L8 63L8 64L10 64L10 63L12 63L12 67L11 67L11 68L12 68L12 69L11 69L11 70L10 70L10 69L9 69L9 68L10 68L10 66L11 66L11 65L10 65L10 66L8 66L8 65L7 65L7 64L6 64L6 65L4 65L4 66L1 66L1 65L0 65L0 67L3 67L3 69L4 69L4 71L3 71L3 70L2 70L2 72L4 72L4 73L5 73L5 72L4 72L4 71L5 71L5 69L4 69L4 68L6 68L6 69L7 69L7 70L6 70L6 71L8 71L8 70L9 70L9 73L10 73L10 74L8 74L8 72L6 72L6 73L7 73L7 74L5 74L5 75L4 75L4 74L3 74L3 73L2 73L2 76L1 76L1 77L0 77L0 78L1 78L1 77L2 77L2 76L4 76L4 77L5 77L5 76L6 76L6 77L8 77L8 78L9 78L9 79L7 79L7 78L6 78L6 79L7 79L7 80L5 80L5 79L4 79L4 78L2 78L2 80L1 80L1 79L0 79L0 82L1 82L1 81L2 81L2 82L4 82L4 83L3 83L3 84L2 84L2 83L0 83L0 84L1 84L1 85L3 85L3 84L6 84L6 85L7 85L7 84L8 84L8 83L7 83L7 82L10 82L10 81L9 81L9 80L10 80L10 79L11 79L11 80L13 80L13 81L12 81L12 82L13 82L13 83L12 83L12 84L13 84L13 87L15 87L15 86L17 86L17 88L18 88L18 87L20 87L20 88L19 88L19 89L20 89L20 88L21 88L21 92L20 92L20 93L22 93L22 92L24 92L24 93L25 93L25 92L24 92L24 91L23 91L23 90L22 90L22 89L23 89L23 88L24 88L24 87L25 87L25 86L24 86L24 87L20 87L20 86L22 86L22 85L24 85L24 83L23 83L23 82L22 82L22 83L21 83L21 85L20 85L20 81L24 81L24 82L26 82L26 83L25 83L25 85L26 85L26 86L28 86L28 88L27 88L27 87L26 87L26 89L24 89L24 90L26 90L26 89L27 89L27 90L28 90L28 91L27 91L27 92L28 92L28 91L29 91L29 92L30 92L30 93L31 93L31 92L34 92L34 93L35 93L35 91L36 91L36 90L34 90L34 91L32 91L32 90L31 90L31 89L34 89L34 88L35 88L35 86L34 86L34 88L33 88L33 84L36 84L36 83L37 83L37 84L38 84L38 87L37 87L37 89L38 89L38 90L37 90L37 91L39 91L39 90L40 90L40 91L41 91L41 92L42 92L42 93L44 93L44 92L45 92L45 93L46 93L46 91L48 91L48 93L49 93L49 91L51 91L51 90L52 90L52 88L53 88L53 89L54 89L54 91L53 91L53 92L52 92L52 93L53 93L53 92L54 92L54 93L55 93L55 92L54 92L54 91L55 91L55 90L56 90L56 91L58 91L58 90L60 90L60 91L59 91L59 93L61 93L61 92L62 92L62 93L65 93L65 92L64 92L64 91L66 91L66 93L68 93L68 92L67 92L67 91L69 91L69 90L68 90L68 89L67 89L67 88L69 88L69 89L70 89L70 91L71 91L71 92L70 92L70 93L71 93L71 92L72 92L72 93L73 93L73 92L75 92L75 93L77 93L77 92L76 92L76 91L77 91L77 90L78 90L78 89L79 89L79 88L80 88L80 90L79 90L79 91L78 91L78 93L80 93L80 92L81 92L81 93L83 93L83 91L85 91L85 92L84 92L84 93L86 93L86 92L88 92L88 93L89 93L89 92L88 92L88 91L90 91L90 92L93 92L93 90L91 90L91 89L89 89L89 87L90 87L90 88L91 88L91 87L92 87L92 89L93 89L93 87L92 87L92 85L91 85L91 87L90 87L90 84L92 84L92 83L93 83L93 82L91 82L91 81L92 81L92 80L93 80L93 77L92 77L92 78L90 78L90 80L89 80L89 81L88 81L88 80L87 80L87 79L89 79L89 77L90 77L90 76L91 76L91 74L92 74L92 72L91 72L91 70L92 70L92 71L93 71L93 70L92 70L92 68L93 68L93 63L92 63L92 66L91 66L91 65L90 65L90 64L91 64L91 62L92 62L92 61L93 61L93 60L92 60L92 59L93 59L93 58L92 58L92 56L93 56L93 52L91 52L91 51L92 51L92 50L91 50L91 49L93 49L93 46L92 46L92 44L93 44L93 41L92 41L92 39L91 39L91 38L92 38L92 37L93 37L93 36L91 36L91 33L89 33L89 31L90 31L90 32L93 32L93 27L92 27L92 25L93 25L93 24L92 24L92 25L90 25L90 26L89 26L89 24L91 24L91 23L93 23L93 22L90 22L90 23L88 23L88 22L89 22L89 20L87 20L87 19L88 19L88 18L89 18L89 19L90 19L90 20L92 20L92 21L93 21L93 18L91 18L91 19L90 19L90 16L91 16L91 15L92 15L92 17L93 17L93 15L92 15L92 13L90 13L90 12L91 12L91 11L92 11L92 12L93 12L93 10L91 10L91 8L89 8L89 9L88 9L88 10L87 10L87 9L86 9L86 12L85 12L85 13L84 13L84 11L85 11L85 10L83 10L83 9L84 9L84 8L81 8L81 6L82 6L82 7L83 7L83 6L84 6L84 7L85 7L85 6L84 6L84 3L85 3L85 1L84 1L84 0L83 0L83 2L84 2L84 3L83 3L83 4L81 4L81 3L82 3L82 2L81 2L81 1L82 1L82 0L69 0L69 2L68 2L68 1L67 1L67 0L61 0L61 1L60 1L60 4L57 4L57 3L59 3L59 1L58 1L58 0L56 0L56 1L58 1L58 2L57 2L57 3L56 3L56 2L55 2L55 3L54 3L54 1L53 1L53 0L52 0L52 2L53 2L53 3L51 3L51 2L49 2L49 1L48 1L48 0L46 0L46 2L44 2L44 3L45 3L45 4L42 4L42 5L41 5L41 3L40 3L40 2L42 2L42 3L43 3L43 2L42 2L42 1L43 1L43 0L42 0L42 1L41 1L41 0L35 0L35 1L33 1L33 2L34 2L34 3L32 3L32 1L30 1L30 0L28 0L28 2L27 2L27 1L26 1L26 0L25 0L25 1L24 1L24 2L23 2L23 1L22 1L22 2L23 2L23 4L22 4L22 5L20 5L20 7L19 7L19 6L18 6L18 5L19 5L19 3L20 3L20 4L21 4L21 3L20 3L20 2L21 2L21 0L20 0L20 1L19 1L19 0L15 0L15 1L17 1L17 2L18 2L18 4L17 4L17 3L15 3L15 4L16 4L16 7L15 7L15 5L14 5L14 4L13 4L13 3L14 3L14 0L13 0L13 2L12 2L12 4L10 4L10 0ZM11 0L11 1L12 1L12 0ZM44 0L44 1L45 1L45 0ZM50 0L50 1L51 1L51 0ZM25 1L25 2L26 2L26 3L25 3L25 4L24 4L24 6L23 6L23 8L22 8L22 6L21 6L21 7L20 7L20 8L19 8L19 7L18 7L18 6L17 6L17 7L18 7L18 8L17 8L17 9L16 9L16 8L15 8L15 10L17 10L17 11L16 11L16 12L15 12L15 13L16 13L16 12L18 12L18 14L19 14L19 13L20 13L20 12L18 12L18 11L20 11L20 8L21 8L21 9L23 9L23 10L21 10L21 11L23 11L23 13L21 13L21 14L20 14L20 16L19 16L19 15L17 15L17 14L16 14L16 15L17 15L17 17L20 17L20 16L21 16L21 15L22 15L22 16L23 16L23 17L21 17L21 19L20 19L20 18L19 18L19 19L20 19L20 20L18 20L18 21L17 21L17 22L16 22L16 21L15 21L15 18L14 18L14 17L16 17L16 16L14 16L14 15L15 15L15 14L14 14L14 11L13 11L13 12L12 12L12 13L13 13L13 17L12 17L12 18L13 18L13 19L14 19L14 20L12 20L12 19L11 19L11 20L10 20L10 21L9 21L9 22L8 22L8 23L9 23L9 24L10 24L10 21L11 21L11 23L12 23L12 24L13 24L13 25L14 25L14 27L13 27L13 26L11 26L11 28L10 28L10 29L9 29L9 31L10 31L10 32L9 32L9 33L5 33L5 34L4 34L4 36L3 36L3 38L5 38L5 37L6 37L6 38L7 38L7 39L6 39L6 40L7 40L7 41L4 41L4 42L5 42L5 45L4 45L4 44L3 44L3 45L2 45L2 46L3 46L3 47L6 47L6 48L8 48L8 47L6 47L6 46L9 46L9 47L10 47L10 48L9 48L9 49L8 49L8 50L7 50L7 49L6 49L6 50L7 50L7 51L6 51L6 52L9 52L9 53L10 53L10 54L8 54L8 55L12 55L12 56L13 56L13 54L14 54L14 55L15 55L15 52L16 52L16 54L17 54L17 53L18 53L18 52L19 52L19 51L22 51L22 50L23 50L23 52L20 52L20 53L19 53L19 55L20 55L20 54L21 54L21 56L22 56L22 57L21 57L21 59L20 59L20 58L19 58L19 57L20 57L20 56L18 56L18 55L17 55L17 57L18 57L18 60L19 60L19 61L20 61L20 62L18 62L18 64L15 64L15 66L14 66L14 67L15 67L15 68L14 68L14 69L15 69L15 68L16 68L16 67L17 67L17 68L18 68L18 69L17 69L17 70L16 70L16 71L15 71L15 70L13 70L13 69L12 69L12 71L11 71L11 72L10 72L10 73L12 73L12 72L14 72L14 71L15 71L15 76L14 76L14 77L13 77L13 80L16 80L16 79L17 79L17 77L19 77L19 78L18 78L18 79L19 79L19 78L20 78L20 80L24 80L24 79L21 79L21 77L20 77L20 76L19 76L19 74L20 74L20 75L21 75L21 76L23 76L23 77L22 77L22 78L24 78L24 77L26 77L26 76L25 76L25 75L27 75L27 77L29 77L29 78L27 78L27 79L25 79L25 81L26 81L26 80L27 80L27 83L28 83L28 82L29 82L29 83L30 83L30 84L31 84L31 83L33 83L33 82L32 82L32 81L33 81L33 80L34 80L34 79L35 79L35 81L37 81L37 79L38 79L38 78L37 78L37 77L35 77L35 78L34 78L34 79L33 79L33 78L32 78L32 76L35 76L35 74L36 74L36 73L35 73L35 71L37 71L37 72L38 72L38 73L37 73L37 74L38 74L38 75L36 75L36 76L38 76L38 77L39 77L39 76L41 76L41 75L42 75L42 73L43 73L43 74L44 74L44 75L43 75L43 76L42 76L42 77L41 77L41 78L42 78L42 79L43 79L43 82L41 82L41 79L40 79L40 78L39 78L39 80L40 80L40 83L42 83L42 84L43 84L43 82L44 82L44 80L45 80L45 83L44 83L44 84L46 84L46 81L47 81L47 83L48 83L48 84L49 84L49 83L48 83L48 82L50 82L50 80L52 80L52 81L51 81L51 83L52 83L52 84L50 84L50 85L49 85L49 87L50 87L50 88L49 88L49 90L48 90L48 91L49 91L49 90L51 90L51 87L52 87L52 86L53 86L53 87L54 87L54 89L55 89L55 88L56 88L56 87L55 87L55 85L54 85L54 84L57 84L57 83L55 83L55 82L57 82L57 79L56 79L56 80L55 80L55 76L57 76L57 75L58 75L58 77L56 77L56 78L58 78L58 77L61 77L61 76L62 76L62 73L61 73L61 76L60 76L60 75L58 75L58 74L57 74L57 73L54 73L54 75L55 75L55 76L52 76L52 78L53 78L53 77L54 77L54 79L51 79L51 77L50 77L50 78L49 78L49 75L52 75L52 74L51 74L51 73L53 73L53 70L54 70L54 69L57 69L57 70L56 70L56 71L57 71L57 70L58 70L58 71L59 71L59 72L61 72L61 71L62 71L62 72L63 72L63 70L64 70L64 69L62 69L62 67L64 67L64 68L65 68L65 71L66 71L66 68L68 68L68 69L67 69L67 71L68 71L68 72L70 72L70 73L69 73L69 75L68 75L68 76L67 76L67 77L66 77L66 75L67 75L67 74L66 74L66 73L63 73L63 74L66 74L66 75L65 75L65 76L64 76L64 77L66 77L66 78L65 78L65 79L64 79L64 80L65 80L65 79L66 79L66 78L67 78L67 77L68 77L68 78L69 78L69 79L67 79L67 80L66 80L66 81L67 81L67 82L66 82L66 83L67 83L67 82L68 82L68 81L67 81L67 80L71 80L71 82L70 82L70 81L69 81L69 83L68 83L68 84L70 84L70 85L69 85L69 88L70 88L70 89L71 89L71 88L72 88L72 85L71 85L71 84L72 84L72 83L71 83L71 82L74 82L74 83L73 83L73 84L74 84L74 83L75 83L75 81L73 81L73 79L75 79L75 78L76 78L76 80L80 80L80 81L77 81L77 82L76 82L76 83L78 83L78 84L79 84L79 83L80 83L80 84L82 84L82 82L83 82L83 81L84 81L84 80L86 80L86 82L85 82L85 84L86 84L86 83L87 83L87 84L89 84L89 83L87 83L87 82L88 82L88 81L87 81L87 80L86 80L86 79L85 79L85 78L84 78L84 77L86 77L86 76L87 76L87 75L89 75L89 76L90 76L90 73L91 73L91 72L90 72L90 73L89 73L89 70L88 70L88 69L87 69L87 68L90 68L90 69L91 69L91 68L90 68L90 65L89 65L89 67L87 67L87 66L88 66L88 65L87 65L87 66L86 66L86 65L85 65L85 64L86 64L86 63L87 63L87 64L88 64L88 63L87 63L87 62L89 62L89 64L90 64L90 61L91 61L91 60L90 60L90 61L86 61L86 63L85 63L85 64L83 64L83 66L82 66L82 65L80 65L80 64L79 64L79 65L78 65L78 63L79 63L79 62L78 62L78 61L77 61L77 59L78 59L78 56L83 56L83 58L82 58L82 57L79 57L79 59L80 59L80 60L82 60L82 59L83 59L83 58L84 58L84 55L85 55L85 54L88 54L88 55L91 55L91 54L92 54L92 53L91 53L91 52L90 52L90 49L91 49L91 48L90 48L90 49L89 49L89 50L88 50L88 53L87 53L87 52L86 52L86 51L87 51L87 50L86 50L86 51L85 51L85 50L84 50L84 49L85 49L85 48L86 48L86 49L87 49L87 48L88 48L88 47L90 47L90 46L91 46L91 44L89 44L89 46L88 46L88 45L85 45L85 46L84 46L84 43L85 43L85 42L88 42L88 43L87 43L87 44L88 44L88 43L91 43L91 42L92 42L92 41L91 41L91 40L90 40L90 37L91 37L91 36L90 36L90 34L89 34L89 33L87 33L87 35L86 35L86 33L85 33L85 34L84 34L84 31L83 31L83 30L84 30L84 29L83 29L83 28L84 28L84 24L83 24L83 25L81 25L81 24L82 24L82 23L83 23L83 22L84 22L84 21L83 21L83 22L82 22L82 21L81 21L81 22L80 22L80 21L79 21L79 23L81 23L81 24L80 24L80 27L81 27L81 28L82 28L82 29L80 29L80 28L79 28L79 29L78 29L78 27L79 27L79 26L78 26L78 24L77 24L77 23L78 23L78 18L77 18L77 20L76 20L76 21L77 21L77 23L76 23L76 22L75 22L75 20L73 20L73 22L75 22L75 23L73 23L73 24L75 24L75 23L76 23L76 24L77 24L77 26L78 26L78 27L77 27L77 28L76 28L76 29L75 29L75 30L74 30L74 28L73 28L73 27L76 27L76 26L73 26L73 27L72 27L72 25L69 25L69 26L68 26L68 27L70 27L70 26L71 26L71 27L72 27L72 30L71 30L71 31L70 31L70 29L71 29L71 28L69 28L69 32L68 32L68 31L67 31L67 32L68 32L68 33L67 33L67 34L66 34L66 30L64 30L64 29L65 29L65 28L66 28L66 27L65 27L65 28L64 28L64 29L63 29L63 30L62 30L62 27L63 27L63 26L61 26L61 31L62 31L62 33L61 33L61 34L59 34L59 35L57 35L57 37L56 37L56 36L55 36L55 35L56 35L56 34L58 34L58 33L56 33L56 32L54 32L54 31L56 31L56 30L54 30L54 31L51 31L51 37L50 37L50 35L49 35L49 33L48 33L48 32L50 32L50 31L49 31L49 29L48 29L48 27L46 27L46 25L45 25L45 24L44 24L44 25L43 25L43 22L44 22L44 23L47 23L47 25L48 25L48 26L50 26L50 27L49 27L49 28L50 28L50 29L51 29L51 28L52 28L52 26L51 26L51 25L48 25L48 23L49 23L49 21L47 21L47 20L48 20L48 19L49 19L49 18L52 18L52 19L53 19L53 20L55 20L55 19L56 19L56 17L57 17L57 16L56 16L56 14L57 14L57 15L58 15L58 14L60 14L60 15L59 15L59 17L58 17L58 18L57 18L57 19L58 19L58 20L57 20L57 21L60 21L60 22L55 22L55 24L54 24L54 25L56 25L56 26L54 26L54 27L53 27L53 29L52 29L52 30L53 30L53 29L55 29L55 28L58 28L58 27L57 27L57 25L58 25L58 24L60 24L60 22L61 22L61 24L62 24L62 23L64 23L64 24L65 24L65 26L67 26L67 25L66 25L66 24L67 24L67 23L68 23L68 24L70 24L70 23L71 23L71 24L72 24L72 23L71 23L71 22L72 22L72 20L71 20L71 19L70 19L70 17L71 17L71 16L70 16L70 14L71 14L71 15L73 15L73 17L72 17L72 18L73 18L73 19L74 19L74 18L76 18L76 17L78 17L78 16L76 16L76 17L74 17L74 15L75 15L75 14L76 14L76 13L75 13L75 14L72 14L72 13L70 13L70 12L72 12L72 10L74 10L74 9L75 9L75 10L76 10L76 9L75 9L75 7L76 7L76 6L77 6L77 11L76 11L76 12L77 12L77 14L78 14L78 15L79 15L79 14L78 14L78 12L77 12L77 11L78 11L78 8L80 8L80 9L79 9L79 11L81 11L81 12L80 12L80 13L81 13L81 14L80 14L80 15L81 15L81 17L80 17L80 16L79 16L79 18L80 18L80 19L79 19L79 20L82 20L82 17L84 17L84 13L81 13L81 12L82 12L82 11L83 11L83 10L82 10L82 9L81 9L81 8L80 8L80 6L81 6L81 4L80 4L80 2L79 2L79 5L80 5L80 6L79 6L79 7L78 7L78 5L77 5L77 4L78 4L78 2L77 2L77 1L75 1L75 2L74 2L74 1L70 1L70 2L72 2L72 3L71 3L71 4L72 4L72 5L75 5L75 7L74 7L74 6L73 6L73 7L72 7L72 6L71 6L71 5L70 5L70 6L69 6L69 5L68 5L68 3L67 3L67 2L65 2L65 3L63 3L63 2L64 2L64 1L62 1L62 3L61 3L61 5L63 5L63 7L62 7L62 6L61 6L61 7L62 7L62 9L58 9L58 10L59 10L59 11L60 11L60 12L59 12L59 13L56 13L56 11L57 11L57 12L58 12L58 11L57 11L57 10L56 10L56 9L55 9L55 8L54 8L54 11L55 11L55 13L56 13L56 14L55 14L55 15L54 15L54 12L53 12L53 11L52 11L52 12L53 12L53 13L52 13L52 14L50 14L50 15L49 15L49 16L48 16L48 14L47 14L47 13L48 13L48 12L47 12L47 9L48 9L48 11L49 11L49 10L50 10L50 8L49 8L49 7L50 7L50 6L51 6L51 7L52 7L52 5L53 5L53 7L54 7L54 5L55 5L55 7L56 7L56 5L55 5L55 4L49 4L49 7L48 7L48 6L47 6L47 5L48 5L48 4L47 4L47 3L46 3L46 4L45 4L45 5L44 5L44 6L43 6L43 5L42 5L42 6L41 6L41 8L38 8L38 6L39 6L39 7L40 7L40 6L39 6L39 5L40 5L40 3L39 3L39 1L37 1L37 2L36 2L36 1L35 1L35 2L36 2L36 3L34 3L34 5L33 5L33 8L34 8L34 9L35 9L35 8L34 8L34 5L35 5L35 4L37 4L37 5L36 5L36 6L35 6L35 7L36 7L36 9L39 9L39 10L38 10L38 12L37 12L37 10L36 10L36 12L37 12L37 13L38 13L38 14L37 14L37 15L36 15L36 17L35 17L35 15L34 15L34 14L36 14L36 13L34 13L34 11L33 11L33 9L32 9L32 10L31 10L31 11L30 11L30 9L28 9L28 6L27 6L27 9L28 9L28 10L27 10L27 11L26 11L26 10L25 10L25 11L26 11L26 12L25 12L25 13L24 13L24 9L25 9L25 8L26 8L26 5L27 5L27 4L30 4L30 2L28 2L28 3L27 3L27 2L26 2L26 1ZM76 2L76 3L77 3L77 2ZM62 3L62 4L63 4L63 5L64 5L64 4L63 4L63 3ZM66 3L66 4L65 4L65 5L66 5L66 8L67 8L67 9L68 9L68 11L67 11L67 12L66 12L66 14L63 14L63 13L64 13L64 11L65 11L65 8L64 8L64 7L65 7L65 6L64 6L64 7L63 7L63 9L62 9L62 10L60 10L60 11L63 11L63 12L62 12L62 13L61 13L61 12L60 12L60 14L62 14L62 17L64 17L64 18L62 18L62 19L61 19L61 16L60 16L60 17L59 17L59 18L58 18L58 19L60 19L60 20L61 20L61 21L62 21L62 22L65 22L65 21L66 21L66 23L65 23L65 24L66 24L66 23L67 23L67 21L68 21L68 22L69 22L69 21L70 21L70 19L68 19L68 18L67 18L67 16L68 16L68 17L70 17L70 16L69 16L69 15L67 15L67 13L68 13L68 14L69 14L69 12L70 12L70 11L71 11L71 10L70 10L70 11L69 11L69 9L70 9L70 8L69 8L69 6L68 6L68 8L67 8L67 3ZM69 3L69 4L70 4L70 3ZM72 3L72 4L74 4L74 3ZM12 4L12 5L13 5L13 4ZM29 5L29 8L32 8L32 5ZM45 5L45 6L44 6L44 7L45 7L45 11L46 11L46 9L47 9L47 8L46 8L46 7L47 7L47 6L46 6L46 5ZM57 5L57 8L60 8L60 5ZM82 5L82 6L83 6L83 5ZM24 6L24 8L23 8L23 9L24 9L24 8L25 8L25 6ZM30 6L30 7L31 7L31 6ZM36 6L36 7L37 7L37 6ZM42 6L42 7L43 7L43 6ZM45 6L45 7L46 7L46 6ZM58 6L58 7L59 7L59 6ZM70 6L70 7L71 7L71 8L72 8L72 7L71 7L71 6ZM73 7L73 9L74 9L74 7ZM48 8L48 9L49 9L49 8ZM51 8L51 10L52 10L52 8ZM68 8L68 9L69 9L69 8ZM3 9L3 10L2 10L2 11L1 11L1 12L2 12L2 11L3 11L3 14L2 14L2 16L3 16L3 17L4 17L4 16L3 16L3 14L7 14L7 13L6 13L6 12L7 12L7 11L9 11L9 10L8 10L8 9L6 9L6 10L4 10L4 9ZM17 9L17 10L18 10L18 9ZM40 9L40 10L39 10L39 12L38 12L38 13L39 13L39 14L38 14L38 15L37 15L37 16L38 16L38 17L37 17L37 18L38 18L38 19L37 19L37 21L38 21L38 22L34 22L34 21L36 21L36 18L34 18L34 19L35 19L35 20L34 20L34 21L32 21L32 20L33 20L33 17L32 17L32 19L29 19L29 18L31 18L31 17L29 17L29 15L30 15L30 16L32 16L32 15L30 15L30 14L31 14L31 13L32 13L32 14L34 14L34 13L32 13L32 11L31 11L31 12L30 12L30 13L28 13L28 12L29 12L29 11L28 11L28 12L27 12L27 15L28 15L28 17L27 17L27 16L26 16L26 19L25 19L25 16L24 16L24 14L22 14L22 15L23 15L23 16L24 16L24 19L25 19L25 20L23 20L23 18L22 18L22 19L21 19L21 20L20 20L20 22L21 22L21 24L20 24L20 23L19 23L19 21L18 21L18 23L16 23L16 25L15 25L15 24L14 24L14 25L15 25L15 27L16 27L16 28L14 28L14 30L12 30L12 29L13 29L13 28L11 28L11 29L10 29L10 31L11 31L11 32L10 32L10 33L9 33L9 35L8 35L8 34L5 34L5 35L7 35L7 36L6 36L6 37L7 37L7 38L8 38L8 39L7 39L7 40L8 40L8 41L7 41L7 42L6 42L6 43L7 43L7 42L8 42L8 44L6 44L6 45L8 45L8 44L9 44L9 45L11 45L11 44L13 44L13 43L14 43L14 45L15 45L15 43L14 43L14 42L18 42L18 41L19 41L19 45L18 45L18 44L16 44L16 46L11 46L11 47L12 47L12 48L10 48L10 49L9 49L9 50L8 50L8 51L9 51L9 50L10 50L10 49L13 49L13 48L15 48L15 49L16 49L16 50L15 50L15 51L14 51L14 50L12 50L12 51L10 51L10 53L11 53L11 54L12 54L12 53L14 53L14 52L15 52L15 51L16 51L16 50L17 50L17 51L19 51L19 50L20 50L20 49L19 49L19 48L21 48L21 50L22 50L22 48L21 48L21 46L22 46L22 45L24 45L24 46L23 46L23 48L24 48L24 51L26 51L26 52L24 52L24 53L23 53L23 54L22 54L22 53L21 53L21 54L22 54L22 56L23 56L23 54L25 54L25 53L26 53L26 54L27 54L27 55L26 55L26 56L25 56L25 55L24 55L24 57L23 57L23 59L21 59L21 60L22 60L22 61L21 61L21 62L22 62L22 63L21 63L21 65L20 65L20 64L19 64L19 66L18 66L18 67L19 67L19 66L20 66L20 67L21 67L21 65L22 65L22 63L23 63L23 62L24 62L24 64L25 64L25 65L24 65L24 66L26 66L26 67L23 67L23 69L24 69L24 71L23 71L23 70L22 70L22 68L20 68L20 69L19 69L19 73L20 73L20 70L22 70L22 71L21 71L21 72L23 72L23 74L22 74L22 75L23 75L23 74L25 74L25 73L26 73L26 72L27 72L27 74L28 74L28 76L29 76L29 77L31 77L31 76L30 76L30 75L31 75L31 74L32 74L32 75L34 75L34 74L35 74L35 73L34 73L34 72L32 72L32 71L31 71L31 70L33 70L33 71L34 71L34 70L33 70L33 69L32 69L32 66L33 66L33 67L35 67L35 70L38 70L38 72L40 72L40 73L42 73L42 71L43 71L43 72L44 72L44 74L45 74L45 72L47 72L47 71L49 71L49 70L50 70L50 71L51 71L51 68L53 68L53 69L54 69L54 67L55 67L55 66L56 66L56 68L57 68L57 67L58 67L58 70L59 70L59 68L61 68L61 66L64 66L64 67L65 67L65 66L66 66L66 67L67 67L67 66L66 66L66 64L65 64L65 63L66 63L66 62L63 62L63 61L65 61L65 56L64 56L64 55L65 55L65 54L66 54L66 55L68 55L68 56L66 56L66 60L67 60L67 63L68 63L68 68L69 68L69 69L68 69L68 71L69 71L69 69L70 69L70 70L71 70L71 71L70 71L70 72L71 72L71 73L70 73L70 75L71 75L71 77L70 77L70 76L69 76L69 77L70 77L70 79L71 79L71 80L72 80L72 79L73 79L73 74L75 74L75 75L74 75L74 76L75 76L75 77L74 77L74 78L75 78L75 77L76 77L76 78L79 78L79 79L80 79L80 80L81 80L81 81L80 81L80 82L81 82L81 81L83 81L83 80L81 80L81 78L79 78L79 76L78 76L78 75L77 75L77 74L75 74L75 73L76 73L76 70L77 70L77 68L76 68L76 66L78 66L78 65L76 65L76 64L77 64L77 61L76 61L76 59L75 59L75 60L74 60L74 58L72 58L72 57L74 57L74 56L75 56L75 57L76 57L76 54L78 54L78 55L81 55L81 54L78 54L78 53L79 53L79 52L80 52L80 53L82 53L82 55L84 55L84 54L85 54L85 53L82 53L82 52L83 52L83 51L82 51L82 52L81 52L81 51L80 51L80 50L81 50L81 49L82 49L82 48L83 48L83 47L84 47L84 48L85 48L85 47L84 47L84 46L83 46L83 44L81 44L81 42L79 42L79 40L80 40L80 41L82 41L82 43L84 43L84 42L85 42L85 39L86 39L86 40L88 40L88 39L89 39L89 38L86 38L86 36L85 36L85 35L84 35L84 34L83 34L83 32L81 32L81 30L78 30L78 29L76 29L76 30L75 30L75 31L73 31L73 30L72 30L72 31L71 31L71 32L69 32L69 33L68 33L68 34L69 34L69 33L70 33L70 34L71 34L71 35L70 35L70 36L69 36L69 37L68 37L68 35L66 35L66 34L65 34L65 33L64 33L64 30L63 30L63 33L62 33L62 34L61 34L61 35L60 35L60 36L61 36L61 38L60 38L60 37L59 37L59 39L58 39L58 41L57 41L57 39L56 39L56 37L54 37L54 38L55 38L55 39L56 39L56 40L54 40L54 39L53 39L53 40L52 40L52 37L53 37L53 36L52 36L52 37L51 37L51 38L50 38L50 41L49 41L49 38L47 38L47 37L49 37L49 36L47 36L47 37L46 37L46 38L45 38L45 36L46 36L46 35L45 35L45 36L44 36L44 33L46 33L46 34L48 34L48 33L46 33L46 31L45 31L45 32L44 32L44 33L43 33L43 31L44 31L44 30L45 30L45 29L44 29L44 28L46 28L46 27L45 27L45 25L44 25L44 26L43 26L43 25L42 25L42 28L41 28L41 27L40 27L40 26L39 26L39 25L38 25L38 29L35 29L35 28L37 28L37 27L35 27L35 28L34 28L34 30L33 30L33 27L34 27L34 25L33 25L33 24L32 24L32 23L33 23L33 22L34 22L34 23L35 23L35 26L36 26L36 24L39 24L39 21L38 21L38 19L39 19L39 20L40 20L40 19L39 19L39 18L41 18L41 20L42 20L42 18L41 18L41 15L43 15L43 16L42 16L42 17L43 17L43 18L44 18L44 19L43 19L43 21L45 21L45 22L47 22L47 21L45 21L45 20L47 20L47 19L48 19L48 18L47 18L47 19L45 19L45 17L47 17L47 14L45 14L45 13L46 13L46 12L45 12L45 13L44 13L44 14L45 14L45 15L43 15L43 13L42 13L42 12L44 12L44 11L42 11L42 10L44 10L44 9ZM63 9L63 10L64 10L64 9ZM80 9L80 10L81 10L81 9ZM89 9L89 10L88 10L88 11L87 11L87 12L88 12L88 11L89 11L89 10L90 10L90 9ZM3 10L3 11L4 11L4 13L5 13L5 12L6 12L6 11L7 11L7 10L6 10L6 11L4 11L4 10ZM40 11L40 13L41 13L41 11ZM50 11L50 12L49 12L49 13L50 13L50 12L51 12L51 11ZM68 11L68 12L69 12L69 11ZM74 11L74 12L75 12L75 11ZM25 13L25 15L26 15L26 13ZM89 13L89 14L88 14L88 15L87 15L87 14L86 14L86 16L85 16L85 19L83 19L83 20L85 20L85 19L86 19L86 18L87 18L87 17L86 17L86 16L88 16L88 15L89 15L89 16L90 16L90 13ZM39 14L39 15L38 15L38 16L39 16L39 17L38 17L38 18L39 18L39 17L40 17L40 15L41 15L41 14ZM82 14L82 15L83 15L83 14ZM33 15L33 16L34 16L34 15ZM65 15L65 16L64 16L64 17L65 17L65 16L66 16L66 15ZM44 16L44 17L45 17L45 16ZM49 16L49 17L50 17L50 16ZM53 16L53 19L55 19L55 17L54 17L54 16ZM1 18L1 19L2 19L2 18ZM17 18L17 19L16 19L16 20L17 20L17 19L18 19L18 18ZM64 18L64 20L65 20L65 19L66 19L66 18ZM6 19L6 20L5 20L5 21L6 21L6 22L5 22L5 23L3 23L3 24L4 24L4 25L3 25L3 26L4 26L4 27L5 27L5 28L8 28L8 27L9 27L9 25L6 25L6 24L7 24L7 23L6 23L6 22L7 22L7 21L6 21L6 20L7 20L7 19ZM8 19L8 20L9 20L9 19ZM26 19L26 20L27 20L27 19ZM28 19L28 21L26 21L26 23L25 23L25 22L24 22L24 21L23 21L23 20L21 20L21 22L22 22L22 25L23 25L23 26L24 26L24 25L25 25L25 27L27 27L27 28L25 28L25 29L27 29L27 30L26 30L26 33L27 33L27 34L26 34L26 35L28 35L28 36L27 36L27 37L30 37L30 38L26 38L26 36L25 36L25 35L24 35L24 38L22 38L22 37L21 37L21 38L20 38L20 36L19 36L19 35L18 35L18 36L19 36L19 37L17 37L17 38L18 38L18 39L17 39L17 40L15 40L15 39L16 39L16 38L15 38L15 36L14 36L14 37L13 37L13 36L12 36L12 35L14 35L14 34L15 34L15 35L16 35L16 36L17 36L17 35L16 35L16 34L15 34L15 33L17 33L17 32L19 32L19 33L18 33L18 34L19 34L19 33L20 33L20 31L22 31L22 34L24 34L24 33L25 33L25 32L23 32L23 31L22 31L22 30L24 30L24 28L22 28L22 26L18 26L18 27L17 27L17 29L15 29L15 31L16 31L16 30L17 30L17 29L18 29L18 30L19 30L19 28L20 28L20 27L21 27L21 28L22 28L22 30L21 30L21 29L20 29L20 31L17 31L17 32L14 32L14 31L13 31L13 32L11 32L11 33L10 33L10 35L11 35L11 36L10 36L10 37L13 37L13 38L12 38L12 39L11 39L11 38L10 38L10 41L9 41L9 42L11 42L11 43L9 43L9 44L11 44L11 43L12 43L12 42L11 42L11 40L12 40L12 39L13 39L13 38L15 38L15 39L14 39L14 40L15 40L15 41L18 41L18 40L20 40L20 43L21 43L21 45L19 45L19 47L17 47L17 46L16 46L16 48L17 48L17 49L18 49L18 50L19 50L19 49L18 49L18 48L19 48L19 47L20 47L20 46L21 46L21 45L22 45L22 43L23 43L23 44L24 44L24 45L25 45L25 46L24 46L24 48L25 48L25 50L26 50L26 49L27 49L27 50L28 50L28 51L27 51L27 52L26 52L26 53L27 53L27 54L28 54L28 56L29 56L29 54L31 54L31 55L30 55L30 56L31 56L31 55L32 55L32 54L31 54L31 53L30 53L30 51L29 51L29 50L31 50L31 49L32 49L32 48L33 48L33 50L32 50L32 53L33 53L33 50L34 50L34 47L35 47L35 45L36 45L36 46L37 46L37 45L39 45L39 46L40 46L40 47L39 47L39 50L40 50L40 51L39 51L39 52L38 52L38 48L37 48L37 49L36 49L36 48L35 48L35 51L36 51L36 52L38 52L38 53L39 53L39 54L38 54L38 56L39 56L39 57L38 57L38 59L37 59L37 57L36 57L36 55L35 55L35 54L37 54L37 53L34 53L34 54L33 54L33 55L34 55L34 56L33 56L33 57L34 57L34 60L33 60L33 61L29 61L29 64L28 64L28 65L29 65L29 66L30 66L30 65L31 65L31 66L32 66L32 65L33 65L33 66L34 66L34 64L32 64L32 63L36 63L36 64L35 64L35 67L36 67L36 65L38 65L38 66L37 66L37 67L39 67L39 68L40 68L40 67L39 67L39 66L41 66L41 65L40 65L40 64L39 64L39 65L38 65L38 64L37 64L37 63L36 63L36 61L38 61L38 62L39 62L39 61L38 61L38 60L39 60L39 57L40 57L40 59L41 59L41 60L40 60L40 62L41 62L41 63L42 63L42 62L43 62L43 65L42 65L42 67L41 67L41 69L42 69L42 70L39 70L39 69L38 69L38 70L39 70L39 71L40 71L40 72L41 72L41 71L42 71L42 70L43 70L43 71L44 71L44 70L43 70L43 69L45 69L45 71L47 71L47 70L46 70L46 69L45 69L45 68L46 68L46 67L48 67L48 68L47 68L47 69L48 69L48 70L49 70L49 69L50 69L50 68L51 68L51 67L54 67L54 65L56 65L56 66L58 66L58 65L59 65L59 64L58 64L58 62L55 62L55 61L56 61L56 60L55 60L55 61L54 61L54 59L56 59L56 56L57 56L57 55L56 55L56 54L59 54L59 53L55 53L55 52L56 52L56 51L57 51L57 52L58 52L58 51L59 51L59 49L60 49L60 50L61 50L61 51L60 51L60 52L61 52L61 55L62 55L62 57L61 57L61 58L64 58L64 57L63 57L63 55L62 55L62 54L63 54L63 52L62 52L62 51L63 51L63 50L64 50L64 54L65 54L65 51L67 51L67 50L68 50L68 51L69 51L69 52L70 52L70 53L68 53L68 52L66 52L66 54L69 54L69 56L68 56L68 57L67 57L67 59L68 59L68 60L69 60L69 59L70 59L70 58L71 58L71 60L70 60L70 61L69 61L69 62L68 62L68 63L70 63L70 64L69 64L69 65L70 65L70 64L71 64L71 63L73 63L73 64L72 64L72 66L70 66L70 67L69 67L69 68L71 68L71 70L72 70L72 68L71 68L71 67L72 67L72 66L73 66L73 67L74 67L74 66L76 66L76 65L74 65L74 63L76 63L76 62L72 62L72 61L71 61L71 60L72 60L72 58L71 58L71 57L72 57L72 56L71 56L71 55L72 55L72 54L71 54L71 55L70 55L70 53L71 53L71 51L73 51L73 52L72 52L72 53L73 53L73 55L74 55L74 54L76 54L76 53L74 53L74 51L73 51L73 50L74 50L74 49L75 49L75 50L78 50L78 49L75 49L75 48L73 48L73 50L72 50L72 49L70 49L70 48L69 48L69 47L68 47L68 45L69 45L69 46L70 46L70 45L69 45L69 44L71 44L71 45L73 45L73 46L74 46L74 45L75 45L75 44L74 44L74 45L73 45L73 43L76 43L76 42L77 42L77 40L78 40L78 39L77 39L77 40L76 40L76 39L75 39L75 38L78 38L78 37L75 37L75 38L73 38L73 39L75 39L75 40L74 40L74 41L73 41L73 40L72 40L72 42L73 42L73 43L72 43L72 44L71 44L71 43L70 43L70 41L71 41L71 39L72 39L72 37L73 37L73 36L74 36L74 35L73 35L73 34L74 34L74 33L75 33L75 32L74 32L74 33L73 33L73 34L72 34L72 32L71 32L71 34L72 34L72 35L73 35L73 36L72 36L72 37L69 37L69 38L68 38L68 40L67 40L67 44L68 44L68 45L67 45L67 47L68 47L68 48L69 48L69 49L67 49L67 50L66 50L66 49L63 49L63 50L61 50L61 49L60 49L60 46L59 46L59 45L60 45L60 43L58 43L58 42L59 42L59 41L60 41L60 40L61 40L61 43L63 43L63 42L64 42L64 41L65 41L65 40L66 40L66 39L65 39L65 40L64 40L64 41L63 41L63 42L62 42L62 40L61 40L61 39L63 39L63 38L64 38L64 37L63 37L63 38L61 38L61 39L59 39L59 41L58 41L58 42L56 42L56 41L52 41L52 42L50 42L50 43L51 43L51 44L46 44L46 45L52 45L52 46L45 46L45 44L44 44L44 43L45 43L45 41L44 41L44 39L45 39L45 40L46 40L46 39L45 39L45 38L44 38L44 36L43 36L43 35L40 35L40 34L41 34L41 33L42 33L42 34L43 34L43 33L42 33L42 32L41 32L41 33L40 33L40 31L42 31L42 29L43 29L43 28L42 28L42 29L41 29L41 30L39 30L39 34L38 34L38 31L37 31L37 30L35 30L35 31L33 31L33 33L32 33L32 34L31 34L31 33L30 33L30 34L29 34L29 33L28 33L28 31L27 31L27 30L28 30L28 28L29 28L29 27L27 27L27 26L29 26L29 25L27 25L27 22L29 22L29 23L28 23L28 24L30 24L30 25L31 25L31 26L30 26L30 27L31 27L31 28L32 28L32 26L33 26L33 25L31 25L31 24L30 24L30 23L31 23L31 21L30 21L30 20L29 20L29 19ZM44 19L44 20L45 20L45 19ZM51 20L51 24L53 24L53 23L54 23L54 22L52 22L52 20ZM62 20L62 21L63 21L63 20ZM66 20L66 21L67 21L67 20ZM86 20L86 21L85 21L85 24L86 24L86 27L85 27L85 28L87 28L87 24L88 24L88 23L87 23L87 24L86 24L86 21L87 21L87 22L88 22L88 21L87 21L87 20ZM1 21L1 22L0 22L0 23L1 23L1 22L2 22L2 21ZM13 21L13 22L12 22L12 23L13 23L13 22L14 22L14 23L15 23L15 22L14 22L14 21ZM29 21L29 22L30 22L30 21ZM23 22L23 23L24 23L24 22ZM41 22L41 24L42 24L42 22ZM57 23L57 24L56 24L56 25L57 25L57 24L58 24L58 23ZM17 24L17 25L16 25L16 26L17 26L17 25L18 25L18 24ZM23 24L23 25L24 25L24 24ZM25 24L25 25L26 25L26 26L27 26L27 25L26 25L26 24ZM5 25L5 27L8 27L8 26L6 26L6 25ZM59 26L59 27L60 27L60 26ZM82 26L82 28L83 28L83 26ZM88 26L88 27L89 27L89 26ZM39 27L39 28L40 28L40 27ZM91 27L91 31L92 31L92 27ZM67 28L67 30L68 30L68 28ZM2 29L2 30L4 30L4 29ZM5 29L5 32L8 32L8 29ZM29 29L29 32L32 32L32 29ZM57 29L57 32L60 32L60 29ZM85 29L85 32L88 32L88 29ZM6 30L6 31L7 31L7 30ZM30 30L30 31L31 31L31 30ZM47 30L47 32L48 32L48 30ZM58 30L58 31L59 31L59 30ZM76 30L76 32L77 32L77 34L76 34L76 35L78 35L78 36L79 36L79 35L80 35L80 33L81 33L81 35L83 35L83 34L82 34L82 33L81 33L81 32L80 32L80 31L79 31L79 32L78 32L78 30ZM86 30L86 31L87 31L87 30ZM35 31L35 32L34 32L34 34L33 34L33 35L32 35L32 36L33 36L33 37L31 37L31 34L30 34L30 35L29 35L29 36L30 36L30 37L31 37L31 38L32 38L32 40L31 40L31 39L30 39L30 40L29 40L29 42L31 42L31 44L33 44L33 45L32 45L32 46L29 46L29 45L28 45L28 44L29 44L29 43L28 43L28 41L27 41L27 40L28 40L28 39L26 39L26 38L24 38L24 39L22 39L22 38L21 38L21 39L20 39L20 38L19 38L19 39L20 39L20 40L21 40L21 39L22 39L22 40L23 40L23 41L21 41L21 43L22 43L22 42L23 42L23 43L25 43L25 41L26 41L26 44L27 44L27 46L25 46L25 47L26 47L26 48L27 48L27 49L29 49L29 48L30 48L30 47L33 47L33 46L34 46L34 45L35 45L35 43L36 43L36 44L37 44L37 43L38 43L38 44L39 44L39 43L38 43L38 42L37 42L37 39L38 39L38 40L39 40L39 41L40 41L40 40L42 40L42 42L43 42L43 40L42 40L42 39L43 39L43 38L42 38L42 37L43 37L43 36L40 36L40 37L41 37L41 38L40 38L40 39L38 39L38 38L39 38L39 35L37 35L37 33L36 33L36 31ZM13 32L13 33L14 33L14 32ZM52 32L52 35L53 35L53 32ZM79 32L79 33L80 33L80 32ZM11 33L11 34L12 34L12 33ZM55 33L55 34L56 34L56 33ZM63 33L63 34L64 34L64 36L65 36L65 38L66 38L66 35L65 35L65 34L64 34L64 33ZM1 34L1 37L2 37L2 34ZM34 34L34 35L33 35L33 36L35 36L35 37L36 37L36 36L35 36L35 35L36 35L36 34ZM78 34L78 35L79 35L79 34ZM88 34L88 35L89 35L89 34ZM92 34L92 35L93 35L93 34ZM21 35L21 36L23 36L23 35ZM61 35L61 36L63 36L63 35ZM80 36L80 37L81 37L81 38L79 38L79 39L81 39L81 40L82 40L82 41L83 41L83 40L82 40L82 38L83 38L83 39L84 39L84 37L82 37L82 36ZM87 36L87 37L90 37L90 36ZM37 37L37 38L38 38L38 37ZM33 38L33 40L32 40L32 41L31 41L31 40L30 40L30 41L31 41L31 42L33 42L33 41L34 41L34 42L35 42L35 41L34 41L34 40L35 40L35 39L36 39L36 38ZM70 38L70 39L71 39L71 38ZM8 39L8 40L9 40L9 39ZM24 39L24 40L26 40L26 39ZM47 40L47 41L48 41L48 42L47 42L47 43L49 43L49 41L48 41L48 40ZM69 40L69 41L68 41L68 44L69 44L69 41L70 41L70 40ZM75 40L75 41L74 41L74 42L75 42L75 41L76 41L76 40ZM89 40L89 41L88 41L88 42L89 42L89 41L90 41L90 40ZM13 41L13 42L14 42L14 41ZM23 41L23 42L24 42L24 41ZM36 42L36 43L37 43L37 42ZM40 42L40 45L41 45L41 46L42 46L42 45L41 45L41 42ZM53 42L53 43L52 43L52 45L53 45L53 46L55 46L55 47L57 47L57 48L56 48L56 49L55 49L55 48L53 48L53 47L49 47L49 48L48 48L48 47L46 47L46 48L48 48L48 49L47 49L47 50L46 50L46 51L45 51L45 50L44 50L44 49L45 49L45 48L44 48L44 49L43 49L43 47L42 47L42 49L41 49L41 47L40 47L40 49L41 49L41 50L43 50L43 53L44 53L44 54L45 54L45 52L46 52L46 53L47 53L47 54L49 54L49 55L50 55L50 53L47 53L47 52L48 52L48 51L50 51L50 52L51 52L51 55L52 55L52 57L53 57L53 58L55 58L55 56L53 56L53 55L52 55L52 54L54 54L54 55L55 55L55 54L54 54L54 53L53 53L53 52L55 52L55 51L54 51L54 50L58 50L58 49L59 49L59 47L58 47L58 46L55 46L55 44L56 44L56 45L59 45L59 44L57 44L57 43L56 43L56 42L55 42L55 44L53 44L53 43L54 43L54 42ZM65 42L65 43L64 43L64 44L65 44L65 46L64 46L64 45L63 45L63 44L62 44L62 45L61 45L61 46L62 46L62 45L63 45L63 46L64 46L64 47L66 47L66 42ZM78 42L78 43L79 43L79 44L77 44L77 45L76 45L76 46L75 46L75 47L78 47L78 45L79 45L79 47L80 47L80 48L82 48L82 47L83 47L83 46L82 46L82 45L81 45L81 44L80 44L80 43L79 43L79 42ZM27 43L27 44L28 44L28 43ZM43 44L43 45L44 45L44 44ZM79 44L79 45L80 45L80 46L81 46L81 45L80 45L80 44ZM3 45L3 46L4 46L4 45ZM27 46L27 48L29 48L29 47L28 47L28 46ZM44 46L44 47L45 47L45 46ZM71 46L71 48L72 48L72 46ZM87 46L87 47L88 47L88 46ZM61 47L61 48L62 48L62 47ZM0 48L0 52L1 52L1 50L2 50L2 49L1 49L1 48ZM49 48L49 50L50 50L50 51L51 51L51 52L53 52L53 51L52 51L52 50L53 50L53 48L51 48L51 49L52 49L52 50L50 50L50 48ZM57 48L57 49L58 49L58 48ZM36 50L36 51L37 51L37 50ZM70 50L70 51L71 51L71 50ZM12 51L12 52L14 52L14 51ZM28 51L28 52L27 52L27 53L28 53L28 52L29 52L29 51ZM44 51L44 52L45 52L45 51ZM75 51L75 52L76 52L76 51ZM77 51L77 52L78 52L78 51ZM84 51L84 52L85 52L85 51ZM89 52L89 53L90 53L90 52ZM39 54L39 56L40 56L40 57L42 57L42 56L43 56L43 58L41 58L41 59L45 59L45 60L44 60L44 61L45 61L45 60L46 60L46 58L44 58L44 56L45 56L45 55L43 55L43 54ZM5 55L5 56L7 56L7 55ZM41 55L41 56L42 56L42 55ZM46 55L46 57L47 57L47 61L46 61L46 63L45 63L45 62L44 62L44 63L45 63L45 64L44 64L44 65L43 65L43 66L44 66L44 67L43 67L43 68L45 68L45 67L46 67L46 66L47 66L47 65L48 65L48 66L49 66L49 65L50 65L50 67L51 67L51 64L50 64L50 63L49 63L49 62L53 62L53 59L52 59L52 58L51 58L51 57L49 57L49 56L48 56L48 57L47 57L47 55ZM58 55L58 56L60 56L60 55ZM10 56L10 57L9 57L9 59L10 59L10 60L11 60L11 59L12 59L12 61L10 61L10 62L14 62L14 63L15 63L15 62L17 62L17 61L16 61L16 56L15 56L15 60L14 60L14 59L12 59L12 58L14 58L14 57L12 57L12 58L11 58L11 56ZM26 56L26 57L27 57L27 56ZM69 56L69 57L68 57L68 59L69 59L69 57L70 57L70 56ZM89 56L89 58L90 58L90 57L91 57L91 56ZM5 57L5 60L8 60L8 57ZM29 57L29 60L32 60L32 57ZM57 57L57 60L60 60L60 57ZM85 57L85 60L88 60L88 57ZM6 58L6 59L7 59L7 58ZM10 58L10 59L11 59L11 58ZM24 58L24 59L25 59L25 60L23 60L23 61L24 61L24 62L26 62L26 61L25 61L25 60L26 60L26 58ZM27 58L27 61L28 61L28 58ZM30 58L30 59L31 59L31 58ZM49 58L49 59L48 59L48 60L49 60L49 61L48 61L48 62L49 62L49 61L50 61L50 58ZM58 58L58 59L59 59L59 58ZM80 58L80 59L81 59L81 58ZM86 58L86 59L87 59L87 58ZM91 58L91 59L92 59L92 58ZM19 59L19 60L20 60L20 59ZM35 59L35 60L37 60L37 59ZM51 59L51 60L52 60L52 59ZM0 60L0 61L1 61L1 60ZM41 60L41 62L42 62L42 61L43 61L43 60ZM61 60L61 62L62 62L62 61L63 61L63 60ZM73 60L73 61L74 61L74 60ZM6 61L6 62L7 62L7 61ZM14 61L14 62L15 62L15 61ZM34 61L34 62L35 62L35 61ZM59 61L59 63L60 63L60 64L61 64L61 65L60 65L60 66L59 66L59 67L60 67L60 66L61 66L61 65L63 65L63 64L61 64L61 63L60 63L60 61ZM70 61L70 63L71 63L71 61ZM81 61L81 62L80 62L80 63L81 63L81 62L82 62L82 63L84 63L84 62L83 62L83 61ZM30 62L30 64L31 64L31 65L32 65L32 64L31 64L31 62ZM54 62L54 63L55 63L55 62ZM26 63L26 64L27 64L27 63ZM47 63L47 64L48 64L48 65L49 65L49 64L48 64L48 63ZM52 63L52 64L53 64L53 65L54 65L54 64L53 64L53 63ZM13 64L13 65L14 65L14 64ZM45 64L45 65L44 65L44 66L45 66L45 65L46 65L46 64ZM56 64L56 65L58 65L58 64ZM64 64L64 65L65 65L65 64ZM6 65L6 66L7 66L7 65ZM26 65L26 66L27 66L27 67L26 67L26 68L27 68L27 69L25 69L25 71L26 71L26 70L27 70L27 71L28 71L28 72L29 72L29 73L30 73L30 72L29 72L29 71L28 71L28 70L30 70L30 69L29 69L29 68L31 68L31 67L29 67L29 68L27 68L27 67L28 67L28 66L27 66L27 65ZM4 66L4 67L5 67L5 66ZM15 66L15 67L16 67L16 66ZM79 66L79 67L78 67L78 71L77 71L77 73L78 73L78 74L79 74L79 75L80 75L80 74L81 74L81 72L80 72L80 70L81 70L81 69L82 69L82 70L83 70L83 71L82 71L82 72L83 72L83 74L84 74L84 75L82 75L82 76L80 76L80 77L82 77L82 79L84 79L84 78L83 78L83 77L82 77L82 76L85 76L85 75L86 75L86 73L88 73L88 70L86 70L86 71L87 71L87 72L85 72L85 69L86 69L86 66L83 66L83 67L84 67L84 69L83 69L83 68L81 68L81 67L80 67L80 66ZM6 67L6 68L7 68L7 67ZM8 67L8 68L9 68L9 67ZM12 67L12 68L13 68L13 67ZM79 67L79 68L80 68L80 69L81 69L81 68L80 68L80 67ZM0 68L0 69L2 69L2 68ZM73 68L73 70L76 70L76 69L75 69L75 68ZM61 69L61 70L62 70L62 69ZM0 71L0 72L1 72L1 71ZM73 71L73 72L74 72L74 71ZM16 72L16 73L17 73L17 74L18 74L18 72ZM24 72L24 73L25 73L25 72ZM31 72L31 73L32 73L32 74L33 74L33 73L32 73L32 72ZM48 72L48 73L49 73L49 72ZM0 73L0 74L1 74L1 73ZM13 73L13 74L12 74L12 75L11 75L11 76L10 76L10 75L9 75L9 76L8 76L8 77L9 77L9 78L11 78L11 79L12 79L12 76L13 76L13 74L14 74L14 73ZM38 73L38 74L39 74L39 75L38 75L38 76L39 76L39 75L40 75L40 74L39 74L39 73ZM46 73L46 75L44 75L44 76L43 76L43 77L42 77L42 78L43 78L43 77L44 77L44 79L45 79L45 80L47 80L47 79L48 79L48 75L47 75L47 73ZM71 73L71 74L73 74L73 73ZM79 73L79 74L80 74L80 73ZM7 74L7 75L6 75L6 76L7 76L7 75L8 75L8 74ZM29 74L29 75L30 75L30 74ZM55 74L55 75L57 75L57 74ZM46 75L46 76L47 76L47 75ZM92 75L92 76L93 76L93 75ZM76 76L76 77L77 77L77 76ZM14 77L14 79L15 79L15 77ZM45 77L45 79L47 79L47 78L46 78L46 77ZM62 77L62 81L59 81L59 80L58 80L58 84L59 84L59 82L60 82L60 84L62 84L62 85L61 85L61 89L60 89L60 90L61 90L61 91L60 91L60 92L61 92L61 91L62 91L62 89L63 89L63 90L64 90L64 89L65 89L65 88L66 88L66 87L64 87L64 89L63 89L63 84L62 84L62 83L61 83L61 82L62 82L62 81L63 81L63 82L64 82L64 81L63 81L63 77ZM87 77L87 78L88 78L88 77ZM30 78L30 79L32 79L32 80L30 80L30 82L31 82L31 81L32 81L32 80L33 80L33 79L32 79L32 78ZM3 79L3 80L2 80L2 81L3 81L3 80L4 80L4 79ZM27 79L27 80L28 80L28 81L29 81L29 79ZM49 79L49 80L50 80L50 79ZM60 79L60 80L61 80L61 79ZM17 80L17 81L18 81L18 82L17 82L17 83L16 83L16 82L15 82L15 84L14 84L14 85L15 85L15 84L16 84L16 85L17 85L17 86L19 86L19 84L18 84L18 82L19 82L19 80ZM54 80L54 82L55 82L55 80ZM90 80L90 81L89 81L89 82L90 82L90 81L91 81L91 80ZM6 81L6 82L5 82L5 83L6 83L6 84L7 84L7 83L6 83L6 82L7 82L7 81ZM34 82L34 83L35 83L35 82ZM37 82L37 83L38 83L38 84L39 84L39 83L38 83L38 82ZM9 83L9 85L8 85L8 87L9 87L9 88L8 88L8 90L9 90L9 91L10 91L10 92L9 92L9 93L12 93L12 90L11 90L11 91L10 91L10 89L11 89L11 87L12 87L12 86L11 86L11 87L9 87L9 85L11 85L11 83ZM70 83L70 84L71 84L71 83ZM27 84L27 85L28 85L28 84ZM40 84L40 86L42 86L42 85L41 85L41 84ZM52 84L52 85L53 85L53 84ZM64 84L64 85L65 85L65 86L66 86L66 85L65 85L65 84ZM29 85L29 88L32 88L32 85ZM36 85L36 86L37 86L37 85ZM43 85L43 86L45 86L45 88L44 88L44 87L43 87L43 88L42 88L42 90L44 90L44 91L45 91L45 90L47 90L47 89L45 89L45 88L47 88L47 87L46 87L46 86L45 86L45 85ZM57 85L57 88L60 88L60 85ZM70 85L70 87L71 87L71 85ZM75 85L75 86L73 86L73 88L74 88L74 87L75 87L75 86L76 86L76 88L77 88L77 86L78 86L78 85ZM80 85L80 86L81 86L81 87L80 87L80 88L81 88L81 92L82 92L82 89L83 89L83 88L82 88L82 86L84 86L84 85ZM85 85L85 88L88 88L88 85ZM30 86L30 87L31 87L31 86ZM58 86L58 87L59 87L59 86ZM86 86L86 87L87 87L87 86ZM39 87L39 88L40 88L40 89L41 89L41 87ZM9 88L9 89L10 89L10 88ZM12 88L12 89L13 89L13 90L14 90L14 91L13 91L13 92L15 92L15 93L16 93L16 92L17 92L17 93L19 93L19 91L20 91L20 90L18 90L18 91L17 91L17 90L16 90L16 91L15 91L15 89L14 89L14 88ZM43 88L43 89L44 89L44 90L45 90L45 89L44 89L44 88ZM28 89L28 90L29 90L29 89ZM72 89L72 90L71 90L71 91L72 91L72 92L73 92L73 91L75 91L75 90L77 90L77 89ZM84 89L84 90L86 90L86 91L87 91L87 89ZM88 89L88 90L89 90L89 89ZM66 90L66 91L67 91L67 90ZM72 90L72 91L73 91L73 90ZM30 91L30 92L31 92L31 91ZM79 91L79 92L80 92L80 91ZM36 92L36 93L37 93L37 92ZM50 92L50 93L51 93L51 92ZM57 92L57 93L58 93L58 92ZM0 0L0 7L7 7L7 0ZM1 1L1 6L6 6L6 1ZM2 2L2 5L5 5L5 2ZM86 0L86 7L93 7L93 0ZM87 1L87 6L92 6L92 1ZM88 2L88 5L91 5L91 2ZM0 86L0 93L7 93L7 86ZM1 87L1 92L6 92L6 87ZM2 88L2 91L5 91L5 88Z" fill="#0d42ff"/></g></g></svg>
