<?xml version="1.0" encoding="UTF-8"?>
<svg xmlns="http://www.w3.org/2000/svg" version="1.1" width="500" height="500" viewBox="0 0 500 500"><rect x="0" y="0" width="500" height="500" fill="#ffffff"/><g transform="scale(5.263)"><g transform="translate(1,1)"><path fill-rule="evenodd" d="M9 0L9 2L8 2L8 4L9 4L9 5L10 5L10 8L9 8L9 11L8 11L8 12L6 12L6 11L7 11L7 10L6 10L6 11L5 11L5 10L3 10L3 9L5 9L5 8L3 8L3 9L1 9L1 11L0 11L0 13L1 13L1 14L0 14L0 16L1 16L1 14L3 14L3 16L2 16L2 17L1 17L1 18L0 18L0 19L1 19L1 20L2 20L2 19L3 19L3 18L4 18L4 17L5 17L5 18L6 18L6 19L7 19L7 20L5 20L5 19L4 19L4 21L3 21L3 23L2 23L2 24L1 24L1 26L0 26L0 27L1 27L1 26L2 26L2 27L3 27L3 28L2 28L2 29L0 29L0 30L1 30L1 31L0 31L0 32L1 32L1 31L3 31L3 33L4 33L4 34L2 34L2 35L1 35L1 34L0 34L0 36L1 36L1 37L0 37L0 39L1 39L1 38L2 38L2 39L3 39L3 40L2 40L2 42L3 42L3 43L1 43L1 42L0 42L0 43L1 43L1 44L2 44L2 45L0 45L0 47L1 47L1 48L0 48L0 50L1 50L1 48L2 48L2 49L3 49L3 48L6 48L6 49L5 49L5 50L6 50L6 51L5 51L5 52L6 52L6 53L8 53L8 54L6 54L6 55L7 55L7 56L5 56L5 54L4 54L4 53L3 53L3 54L2 54L2 53L1 53L1 51L0 51L0 57L1 57L1 58L2 58L2 57L1 57L1 55L2 55L2 56L4 56L4 58L3 58L3 59L0 59L0 61L1 61L1 62L0 62L0 63L1 63L1 66L2 66L2 67L4 67L4 68L1 68L1 67L0 67L0 69L3 69L3 70L1 70L1 71L0 71L0 73L1 73L1 75L0 75L0 76L2 76L2 77L3 77L3 75L4 75L4 77L5 77L5 76L6 76L6 77L7 77L7 76L8 76L8 78L6 78L6 79L8 79L8 80L6 80L6 81L7 81L7 82L6 82L6 83L5 83L5 82L4 82L4 83L3 83L3 84L2 84L2 83L0 83L0 84L1 84L1 85L3 85L3 84L6 84L6 85L7 85L7 84L8 84L8 83L7 83L7 82L10 82L10 81L9 81L9 80L10 80L10 79L11 79L11 81L12 81L12 82L11 82L11 83L9 83L9 85L8 85L8 87L9 87L9 88L8 88L8 90L9 90L9 91L10 91L10 92L9 92L9 93L12 93L12 90L11 90L11 91L10 91L10 89L11 89L11 87L12 87L12 86L11 86L11 87L9 87L9 85L11 85L11 84L14 84L14 85L13 85L13 87L14 87L14 85L15 85L15 86L17 86L17 85L16 85L16 84L15 84L15 83L17 83L17 82L18 82L18 84L19 84L19 85L20 85L20 84L21 84L21 83L22 83L22 82L21 82L21 83L20 83L20 82L18 82L18 81L17 81L17 80L20 80L20 81L22 81L22 80L23 80L23 79L24 79L24 80L25 80L25 79L27 79L27 80L26 80L26 81L25 81L25 82L26 82L26 83L27 83L27 84L25 84L25 85L27 85L27 86L28 86L28 88L27 88L27 87L25 87L25 88L24 88L24 90L26 90L26 91L23 91L23 90L22 90L22 91L20 91L20 92L19 92L19 93L20 93L20 92L21 92L21 93L22 93L22 91L23 91L23 92L24 92L24 93L27 93L27 92L28 92L28 91L29 91L29 92L30 92L30 93L31 93L31 92L30 92L30 91L33 91L33 92L32 92L32 93L40 93L40 91L41 91L41 92L43 92L43 93L44 93L44 92L45 92L45 93L46 93L46 91L47 91L47 93L48 93L48 92L50 92L50 93L51 93L51 92L50 92L50 91L51 91L51 90L49 90L49 88L50 88L50 87L49 87L49 86L48 86L48 87L47 87L47 85L48 85L48 84L49 84L49 85L50 85L50 84L51 84L51 83L53 83L53 86L51 86L51 87L52 87L52 88L51 88L51 89L52 89L52 88L53 88L53 89L54 89L54 91L53 91L53 90L52 90L52 91L53 91L53 92L52 92L52 93L53 93L53 92L54 92L54 93L56 93L56 91L57 91L57 93L61 93L61 92L62 92L62 93L65 93L65 92L64 92L64 91L66 91L66 93L68 93L68 92L67 92L67 91L69 91L69 90L68 90L68 89L67 89L67 88L69 88L69 89L70 89L70 91L71 91L71 92L70 92L70 93L71 93L71 92L72 92L72 93L73 93L73 92L75 92L75 93L77 93L77 92L76 92L76 91L77 91L77 90L78 90L78 89L79 89L79 91L80 91L80 92L78 92L78 93L80 93L80 92L81 92L81 93L83 93L83 91L85 91L85 92L84 92L84 93L86 93L86 92L87 92L87 93L88 93L88 92L89 92L89 91L90 91L90 92L93 92L93 90L91 90L91 89L90 89L90 88L91 88L91 87L92 87L92 89L93 89L93 87L92 87L92 85L91 85L91 87L90 87L90 88L89 88L89 85L90 85L90 84L92 84L92 83L93 83L93 82L91 82L91 81L92 81L92 80L93 80L93 77L92 77L92 78L90 78L90 80L89 80L89 81L88 81L88 80L87 80L87 81L88 81L88 82L87 82L87 83L86 83L86 84L85 84L85 82L86 82L86 79L89 79L89 77L90 77L90 76L91 76L91 74L92 74L92 72L91 72L91 70L92 70L92 71L93 71L93 70L92 70L92 68L93 68L93 63L92 63L92 66L91 66L91 65L90 65L90 64L91 64L91 62L92 62L92 61L93 61L93 60L92 60L92 59L93 59L93 58L92 58L92 56L93 56L93 51L92 51L92 50L91 50L91 49L93 49L93 46L92 46L92 44L93 44L93 41L92 41L92 39L91 39L91 38L92 38L92 37L93 37L93 36L91 36L91 33L89 33L89 31L90 31L90 32L91 32L91 31L93 31L93 27L92 27L92 25L93 25L93 24L92 24L92 23L93 23L93 22L92 22L92 21L93 21L93 20L92 20L92 19L93 19L93 15L92 15L92 13L93 13L93 10L92 10L92 11L91 11L91 10L90 10L90 9L91 9L91 8L89 8L89 9L88 9L88 10L87 10L87 9L86 9L86 12L85 12L85 13L84 13L84 14L85 14L85 15L84 15L84 17L82 17L82 20L78 20L78 24L79 24L79 27L78 27L78 26L77 26L77 24L76 24L76 23L77 23L77 21L76 21L76 20L77 20L77 18L78 18L78 19L80 19L80 18L79 18L79 16L80 16L80 17L81 17L81 16L82 16L82 15L83 15L83 14L82 14L82 15L80 15L80 14L81 14L81 13L80 13L80 12L81 12L81 11L82 11L82 13L83 13L83 12L84 12L84 10L85 10L85 8L81 8L81 6L82 6L82 7L83 7L83 6L84 6L84 7L85 7L85 6L84 6L84 3L85 3L85 1L84 1L84 0L83 0L83 2L84 2L84 3L83 3L83 4L81 4L81 6L80 6L80 8L78 8L78 11L77 11L77 6L76 6L76 7L75 7L75 3L74 3L74 2L75 2L75 1L77 1L77 2L76 2L76 3L77 3L77 5L78 5L78 7L79 7L79 2L80 2L80 3L82 3L82 2L80 2L80 1L82 1L82 0L69 0L69 2L68 2L68 1L67 1L67 0L60 0L60 1L59 1L59 2L57 2L57 3L56 3L56 1L57 1L57 0L56 0L56 1L55 1L55 2L54 2L54 0L53 0L53 1L52 1L52 0L51 0L51 1L50 1L50 0L49 0L49 1L48 1L48 0L46 0L46 2L44 2L44 3L45 3L45 4L42 4L42 5L41 5L41 6L40 6L40 5L38 5L38 4L37 4L37 3L38 3L38 2L36 2L36 1L37 1L37 0L36 0L36 1L34 1L34 2L35 2L35 3L34 3L34 4L37 4L37 6L36 6L36 5L34 5L34 8L33 8L33 2L32 2L32 0L31 0L31 1L30 1L30 0L29 0L29 2L30 2L30 4L28 4L28 3L27 3L27 1L28 1L28 0L25 0L25 1L24 1L24 0L23 0L23 1L21 1L21 0L20 0L20 1L19 1L19 0L15 0L15 1L19 1L19 2L22 2L22 5L21 5L21 4L20 4L20 3L15 3L15 2L14 2L14 4L16 4L16 7L15 7L15 5L12 5L12 4L13 4L13 2L12 2L12 1L11 1L11 2L12 2L12 4L10 4L10 0ZM13 0L13 1L14 1L14 0ZM38 0L38 1L40 1L40 2L42 2L42 3L43 3L43 2L42 2L42 1L43 1L43 0L42 0L42 1L40 1L40 0ZM44 0L44 1L45 1L45 0ZM23 1L23 2L24 2L24 3L25 3L25 5L24 5L24 4L23 4L23 5L24 5L24 6L23 6L23 7L22 7L22 6L21 6L21 5L20 5L20 4L18 4L18 5L17 5L17 7L16 7L16 8L17 8L17 10L14 10L14 9L13 9L13 8L15 8L15 7L14 7L14 6L13 6L13 7L12 7L12 5L11 5L11 8L10 8L10 10L12 10L12 11L14 11L14 12L12 12L12 13L11 13L11 11L10 11L10 12L8 12L8 13L6 13L6 12L5 12L5 13L4 13L4 11L3 11L3 10L2 10L2 11L1 11L1 12L2 12L2 11L3 11L3 14L4 14L4 16L3 16L3 17L4 17L4 16L5 16L5 17L6 17L6 18L7 18L7 19L8 19L8 18L7 18L7 17L9 17L9 20L10 20L10 18L11 18L11 14L12 14L12 13L14 13L14 12L15 12L15 13L16 13L16 12L17 12L17 11L20 11L20 12L18 12L18 14L20 14L20 15L19 15L19 16L17 16L17 14L16 14L16 17L17 17L17 18L16 18L16 19L15 19L15 18L14 18L14 17L12 17L12 18L14 18L14 19L13 19L13 20L12 20L12 19L11 19L11 22L9 22L9 21L8 21L8 20L7 20L7 21L6 21L6 22L5 22L5 23L3 23L3 24L4 24L4 25L3 25L3 26L4 26L4 27L5 27L5 28L7 28L7 27L5 27L5 25L6 25L6 26L7 26L7 25L6 25L6 24L8 24L8 27L9 27L9 28L13 28L13 29L12 29L12 30L13 30L13 31L16 31L16 30L18 30L18 29L15 29L15 28L16 28L16 27L15 27L15 25L16 25L16 26L17 26L17 28L18 28L18 27L19 27L19 28L20 28L20 26L18 26L18 25L16 25L16 23L18 23L18 24L19 24L19 25L21 25L21 24L19 24L19 23L21 23L21 22L23 22L23 23L22 23L22 25L23 25L23 23L24 23L24 24L26 24L26 25L24 25L24 26L25 26L25 27L28 27L28 26L29 26L29 28L30 28L30 24L28 24L28 26L26 26L26 25L27 25L27 23L30 23L30 22L29 22L29 21L30 21L30 20L29 20L29 21L28 21L28 19L29 19L29 18L28 18L28 17L30 17L30 19L32 19L32 17L33 17L33 16L34 16L34 17L35 17L35 18L36 18L36 19L38 19L38 21L36 21L36 20L35 20L35 19L34 19L34 18L33 18L33 20L32 20L32 21L33 21L33 22L34 22L34 24L33 24L33 23L32 23L32 24L33 24L33 25L31 25L31 28L32 28L32 26L33 26L33 30L34 30L34 28L35 28L35 29L38 29L38 25L39 25L39 24L40 24L40 27L39 27L39 28L42 28L42 29L39 29L39 31L40 31L40 30L41 30L41 32L39 32L39 34L38 34L38 31L37 31L37 30L35 30L35 31L33 31L33 33L32 33L32 34L31 34L31 35L30 35L30 34L29 34L29 35L30 35L30 38L31 38L31 40L28 40L28 39L29 39L29 36L27 36L27 35L28 35L28 34L25 34L25 35L24 35L24 38L22 38L22 37L21 37L21 38L20 38L20 35L21 35L21 36L23 36L23 35L21 35L21 33L19 33L19 34L18 34L18 35L19 35L19 36L18 36L18 37L19 37L19 38L20 38L20 39L17 39L17 40L15 40L15 39L16 39L16 38L15 38L15 37L14 37L14 36L15 36L15 35L16 35L16 36L17 36L17 35L16 35L16 34L13 34L13 33L11 33L11 31L9 31L9 34L10 34L10 35L8 35L8 33L5 33L5 34L4 34L4 35L2 35L2 37L3 37L3 38L5 38L5 37L6 37L6 38L7 38L7 39L6 39L6 40L7 40L7 41L4 41L4 40L3 40L3 41L4 41L4 42L5 42L5 45L4 45L4 44L3 44L3 45L2 45L2 47L6 47L6 48L7 48L7 49L6 49L6 50L8 50L8 48L9 48L9 47L6 47L6 46L10 46L10 45L9 45L9 44L8 44L8 43L11 43L11 45L12 45L12 44L15 44L15 46L16 46L16 47L17 47L17 48L14 48L14 45L13 45L13 47L11 47L11 48L10 48L10 49L9 49L9 50L10 50L10 53L9 53L9 54L8 54L8 55L9 55L9 56L10 56L10 57L9 57L9 58L10 58L10 59L9 59L9 60L11 60L11 59L12 59L12 60L13 60L13 62L14 62L14 63L15 63L15 62L17 62L17 60L16 60L16 58L15 58L15 60L14 60L14 59L13 59L13 58L14 58L14 57L13 57L13 56L12 56L12 54L11 54L11 52L13 52L13 54L14 54L14 55L16 55L16 54L17 54L17 53L18 53L18 52L19 52L19 51L21 51L21 48L22 48L22 50L23 50L23 46L24 46L24 47L25 47L25 48L24 48L24 49L25 49L25 50L24 50L24 52L23 52L23 51L22 51L22 52L20 52L20 53L19 53L19 55L20 55L20 54L21 54L21 56L22 56L22 57L21 57L21 59L20 59L20 58L19 58L19 57L20 57L20 56L18 56L18 55L17 55L17 56L15 56L15 57L18 57L18 60L19 60L19 61L20 61L20 62L18 62L18 64L17 64L17 63L16 63L16 64L15 64L15 66L14 66L14 67L15 67L15 68L14 68L14 69L15 69L15 68L16 68L16 67L18 67L18 68L19 68L19 67L20 67L20 70L19 70L19 69L18 69L18 70L13 70L13 67L12 67L12 66L11 66L11 65L10 65L10 64L11 64L11 63L12 63L12 61L11 61L11 62L9 62L9 63L10 63L10 64L8 64L8 63L6 63L6 62L7 62L7 61L6 61L6 62L5 62L5 64L4 64L4 65L3 65L3 64L2 64L2 65L3 65L3 66L4 66L4 65L6 65L6 66L7 66L7 65L8 65L8 66L9 66L9 67L10 67L10 68L9 68L9 69L5 69L5 71L4 71L4 70L3 70L3 71L1 71L1 72L3 72L3 74L4 74L4 75L5 75L5 74L7 74L7 75L6 75L6 76L7 76L7 75L8 75L8 74L10 74L10 73L11 73L11 75L13 75L13 74L14 74L14 73L13 73L13 72L14 72L14 71L15 71L15 72L16 72L16 75L18 75L18 76L14 76L14 77L12 77L12 76L10 76L10 75L9 75L9 78L8 78L8 79L9 79L9 78L11 78L11 77L12 77L12 79L13 79L13 80L15 80L15 82L16 82L16 77L18 77L18 79L19 79L19 78L20 78L20 80L22 80L22 77L23 77L23 78L24 78L24 77L25 77L25 78L27 78L27 79L29 79L29 81L28 81L28 80L27 80L27 83L28 83L28 82L29 82L29 83L30 83L30 84L31 84L31 83L32 83L32 81L33 81L33 79L34 79L34 80L35 80L35 81L36 81L36 82L35 82L35 83L34 83L34 82L33 82L33 83L34 83L34 84L35 84L35 87L36 87L36 86L39 86L39 85L38 85L38 84L36 84L36 83L37 83L37 81L39 81L39 80L40 80L40 83L42 83L42 86L41 86L41 84L40 84L40 86L41 86L41 87L39 87L39 88L40 88L40 89L41 89L41 90L42 90L42 91L43 91L43 90L44 90L44 91L45 91L45 90L47 90L47 89L45 89L45 88L47 88L47 87L46 87L46 86L45 86L45 85L43 85L43 82L44 82L44 80L45 80L45 83L44 83L44 84L46 84L46 81L47 81L47 83L48 83L48 82L50 82L50 80L51 80L51 82L53 82L53 83L56 83L56 84L55 84L55 87L54 87L54 89L55 89L55 87L56 87L56 84L60 84L60 81L59 81L59 80L58 80L58 79L57 79L57 80L56 80L56 79L53 79L53 78L55 78L55 74L58 74L58 75L57 75L57 76L58 76L58 75L59 75L59 78L60 78L60 76L62 76L62 73L61 73L61 75L60 75L60 74L59 74L59 72L61 72L61 71L62 71L62 72L63 72L63 70L64 70L64 69L62 69L62 68L63 68L63 67L64 67L64 68L65 68L65 71L66 71L66 68L68 68L68 69L67 69L67 71L68 71L68 72L70 72L70 73L69 73L69 75L68 75L68 76L67 76L67 73L63 73L63 74L66 74L66 75L65 75L65 76L64 76L64 77L65 77L65 76L67 76L67 77L68 77L68 78L69 78L69 79L66 79L66 78L65 78L65 79L64 79L64 80L65 80L65 82L68 82L68 81L66 81L66 80L71 80L71 81L72 81L72 82L70 82L70 81L69 81L69 83L68 83L68 84L70 84L70 85L69 85L69 88L70 88L70 89L71 89L71 88L72 88L72 85L71 85L71 84L72 84L72 82L74 82L74 83L73 83L73 84L74 84L74 83L75 83L75 81L73 81L73 80L71 80L71 79L70 79L70 77L71 77L71 75L70 75L70 73L71 73L71 72L72 72L72 71L71 71L71 70L72 70L72 68L71 68L71 70L70 70L70 69L69 69L69 68L70 68L70 67L69 67L69 68L68 68L68 66L71 66L71 63L73 63L73 67L74 67L74 66L76 66L76 68L77 68L77 70L76 70L76 73L75 73L75 74L73 74L73 79L75 79L75 78L76 78L76 77L77 77L77 76L76 76L76 77L75 77L75 76L74 76L74 75L76 75L76 74L77 74L77 75L78 75L78 76L79 76L79 77L80 77L80 78L81 78L81 79L82 79L82 81L81 81L81 80L80 80L80 79L79 79L79 78L77 78L77 79L76 79L76 81L77 81L77 82L76 82L76 83L78 83L78 84L79 84L79 83L80 83L80 84L82 84L82 81L84 81L84 80L85 80L85 78L84 78L84 77L86 77L86 75L87 75L87 76L88 76L88 75L87 75L87 73L86 73L86 75L85 75L85 76L82 76L82 75L84 75L84 74L82 74L82 71L83 71L83 70L82 70L82 69L81 69L81 68L83 68L83 69L84 69L84 67L83 67L83 66L85 66L85 64L83 64L83 66L82 66L82 65L80 65L80 64L79 64L79 65L78 65L78 63L79 63L79 62L78 62L78 61L77 61L77 59L78 59L78 56L83 56L83 58L82 58L82 57L79 57L79 59L80 59L80 60L82 60L82 59L83 59L83 58L84 58L84 55L85 55L85 56L86 56L86 55L85 55L85 54L87 54L87 52L86 52L86 51L87 51L87 50L88 50L88 53L89 53L89 55L91 55L91 54L92 54L92 52L90 52L90 49L91 49L91 48L90 48L90 49L89 49L89 50L88 50L88 49L87 49L87 48L88 48L88 47L90 47L90 46L91 46L91 44L89 44L89 46L88 46L88 45L87 45L87 46L88 46L88 47L86 47L86 45L85 45L85 46L84 46L84 43L85 43L85 42L88 42L88 43L87 43L87 44L88 44L88 43L91 43L91 42L92 42L92 41L91 41L91 40L90 40L90 37L91 37L91 36L90 36L90 34L89 34L89 33L87 33L87 35L86 35L86 33L85 33L85 34L84 34L84 32L83 32L83 30L84 30L84 24L83 24L83 25L81 25L81 24L82 24L82 23L84 23L84 21L83 21L83 22L82 22L82 21L81 21L81 22L80 22L80 21L79 21L79 23L81 23L81 24L80 24L80 27L81 27L81 28L82 28L82 29L80 29L80 28L78 28L78 30L76 30L76 29L77 29L77 28L76 28L76 29L75 29L75 28L74 28L74 29L73 29L73 27L76 27L76 26L73 26L73 27L72 27L72 25L69 25L69 24L70 24L70 23L71 23L71 24L72 24L72 23L71 23L71 22L72 22L72 20L71 20L71 19L70 19L70 17L71 17L71 16L70 16L70 14L71 14L71 15L73 15L73 17L72 17L72 18L73 18L73 20L74 20L74 18L76 18L76 17L77 17L77 16L78 16L78 15L79 15L79 13L77 13L77 14L78 14L78 15L77 15L77 16L76 16L76 17L74 17L74 15L75 15L75 14L76 14L76 13L75 13L75 11L74 11L74 13L75 13L75 14L74 14L74 15L73 15L73 14L72 14L72 13L70 13L70 12L72 12L72 10L74 10L74 9L75 9L75 10L76 10L76 9L75 9L75 8L74 8L74 9L73 9L73 7L74 7L74 6L73 6L73 7L72 7L72 6L71 6L71 5L70 5L70 6L69 6L69 5L68 5L68 3L67 3L67 2L65 2L65 1L62 1L62 3L61 3L61 1L60 1L60 2L59 2L59 3L57 3L57 4L61 4L61 5L64 5L64 6L63 6L63 7L62 7L62 6L61 6L61 7L62 7L62 9L58 9L58 10L60 10L60 12L61 12L61 13L62 13L62 12L63 12L63 11L61 11L61 10L62 10L62 9L63 9L63 10L64 10L64 9L65 9L65 14L66 14L66 12L67 12L67 11L68 11L68 12L69 12L69 14L68 14L68 13L67 13L67 15L69 15L69 16L70 16L70 17L68 17L68 16L67 16L67 18L69 18L69 19L68 19L68 20L66 20L66 21L65 21L65 22L64 22L64 21L63 21L63 22L62 22L62 21L61 21L61 19L62 19L62 18L64 18L64 20L65 20L65 19L66 19L66 18L64 18L64 17L65 17L65 16L66 16L66 15L65 15L65 16L64 16L64 17L62 17L62 14L61 14L61 15L60 15L60 14L59 14L59 13L56 13L56 11L57 11L57 12L58 12L58 11L57 11L57 10L56 10L56 8L55 8L55 7L56 7L56 3L55 3L55 5L54 5L54 3L53 3L53 2L51 2L51 3L53 3L53 4L49 4L49 7L48 7L48 6L47 6L47 5L48 5L48 4L47 4L47 3L46 3L46 4L45 4L45 5L44 5L44 6L43 6L43 5L42 5L42 6L41 6L41 7L40 7L40 6L39 6L39 7L40 7L40 8L39 8L39 10L38 10L38 12L37 12L37 10L36 10L36 11L35 11L35 13L33 13L33 11L34 11L34 10L35 10L35 9L36 9L36 8L35 8L35 9L32 9L32 10L31 10L31 11L30 11L30 9L29 9L29 10L28 10L28 9L27 9L27 10L28 10L28 11L26 11L26 10L24 10L24 12L25 12L25 13L24 13L24 14L22 14L22 15L23 15L23 16L21 16L21 14L20 14L20 13L22 13L22 12L23 12L23 11L22 11L22 12L21 12L21 11L20 11L20 10L21 10L21 9L20 9L20 8L22 8L22 9L24 9L24 8L26 8L26 5L28 5L28 4L26 4L26 2L24 2L24 1ZM70 1L70 2L72 2L72 3L71 3L71 4L72 4L72 5L74 5L74 4L72 4L72 3L73 3L73 2L74 2L74 1ZM63 2L63 3L62 3L62 4L64 4L64 5L66 5L66 8L67 8L67 9L68 9L68 11L69 11L69 12L70 12L70 11L71 11L71 10L70 10L70 11L69 11L69 9L70 9L70 8L69 8L69 6L68 6L68 8L67 8L67 3L66 3L66 4L65 4L65 3L64 3L64 2ZM77 2L77 3L78 3L78 2ZM40 3L40 4L41 4L41 3ZM69 3L69 4L70 4L70 3ZM19 5L19 6L18 6L18 7L19 7L19 8L18 8L18 10L20 10L20 9L19 9L19 8L20 8L20 7L21 7L21 6L20 6L20 5ZM29 5L29 8L32 8L32 5ZM45 5L45 6L44 6L44 7L45 7L45 6L46 6L46 9L47 9L47 10L45 10L45 9L44 9L44 10L45 10L45 11L44 11L44 13L42 13L42 12L43 12L43 11L42 11L42 10L43 10L43 9L41 9L41 12L40 12L40 11L39 11L39 12L38 12L38 13L37 13L37 12L36 12L36 13L35 13L35 15L36 15L36 16L38 16L38 17L36 17L36 18L38 18L38 19L41 19L41 20L39 20L39 21L38 21L38 22L36 22L36 21L35 21L35 23L36 23L36 24L39 24L39 23L40 23L40 24L42 24L42 26L41 26L41 27L42 27L42 28L45 28L45 27L43 27L43 24L44 24L44 26L45 26L45 25L46 25L46 30L45 30L45 31L46 31L46 32L47 32L47 33L45 33L45 32L44 32L44 33L42 33L42 34L44 34L44 35L43 35L43 36L40 36L40 38L39 38L39 35L40 35L40 34L39 34L39 35L37 35L37 33L36 33L36 31L35 31L35 32L34 32L34 34L33 34L33 35L32 35L32 36L33 36L33 37L31 37L31 38L32 38L32 40L31 40L31 41L29 41L29 42L27 42L27 41L28 41L28 40L27 40L27 38L28 38L28 37L27 37L27 38L24 38L24 39L22 39L22 38L21 38L21 39L20 39L20 40L18 40L18 41L15 41L15 42L18 42L18 41L19 41L19 45L18 45L18 44L16 44L16 46L17 46L17 47L19 47L19 48L18 48L18 49L17 49L17 51L16 51L16 50L15 50L15 51L14 51L14 50L11 50L11 49L12 49L12 48L11 48L11 49L10 49L10 50L11 50L11 51L14 51L14 53L15 53L15 54L16 54L16 53L15 53L15 52L17 52L17 51L19 51L19 50L20 50L20 49L19 49L19 48L21 48L21 46L22 46L22 45L24 45L24 46L25 46L25 47L26 47L26 48L27 48L27 49L26 49L26 50L25 50L25 51L26 51L26 52L24 52L24 53L23 53L23 52L22 52L22 53L21 53L21 54L22 54L22 56L23 56L23 54L25 54L25 55L24 55L24 57L23 57L23 59L22 59L22 60L26 60L26 64L27 64L27 66L25 66L25 65L24 65L24 66L25 66L25 67L23 67L23 69L24 69L24 71L23 71L23 70L22 70L22 68L21 68L21 70L20 70L20 71L19 71L19 74L20 74L20 75L23 75L23 74L25 74L25 75L28 75L28 76L29 76L29 77L27 77L27 78L29 78L29 77L32 77L32 78L30 78L30 79L31 79L31 80L30 80L30 82L31 82L31 80L32 80L32 78L33 78L33 77L32 77L32 76L30 76L30 74L32 74L32 73L33 73L33 75L34 75L34 76L35 76L35 77L34 77L34 78L35 78L35 80L38 80L38 78L40 78L40 79L42 79L42 77L43 77L43 75L44 75L44 76L45 76L45 75L46 75L46 76L47 76L47 78L46 78L46 77L45 77L45 78L46 78L46 79L45 79L45 80L47 80L47 79L48 79L48 75L47 75L47 74L49 74L49 73L48 73L48 72L47 72L47 71L49 71L49 70L50 70L50 71L51 71L51 72L52 72L52 71L51 71L51 69L52 69L52 67L53 67L53 69L54 69L54 70L53 70L53 75L52 75L52 76L51 76L51 75L49 75L49 78L50 78L50 77L52 77L52 76L53 76L53 75L54 75L54 73L55 73L55 69L54 69L54 67L56 67L56 69L57 69L57 71L58 71L58 72L59 72L59 70L58 70L58 69L59 69L59 68L61 68L61 67L63 67L63 66L64 66L64 67L65 67L65 66L66 66L66 67L67 67L67 66L68 66L68 65L70 65L70 64L69 64L69 63L68 63L68 62L69 62L69 61L72 61L72 62L76 62L76 63L74 63L74 65L76 65L76 66L78 66L78 65L76 65L76 64L77 64L77 61L76 61L76 58L77 58L77 56L76 56L76 55L75 55L75 54L76 54L76 53L75 53L75 52L74 52L74 53L75 53L75 54L74 54L74 55L73 55L73 51L74 51L74 49L78 49L78 50L75 50L75 51L78 51L78 52L77 52L77 54L78 54L78 55L81 55L81 54L78 54L78 53L79 53L79 52L80 52L80 53L82 53L82 55L84 55L84 53L85 53L85 51L86 51L86 50L87 50L87 49L84 49L84 50L85 50L85 51L84 51L84 53L82 53L82 52L83 52L83 51L82 51L82 52L81 52L81 51L80 51L80 50L81 50L81 49L82 49L82 48L83 48L83 47L84 47L84 48L85 48L85 47L84 47L84 46L83 46L83 44L81 44L81 42L79 42L79 40L80 40L80 41L82 41L82 43L84 43L84 42L85 42L85 40L86 40L86 41L87 41L87 40L88 40L88 39L89 39L89 38L87 38L87 37L90 37L90 36L87 36L87 37L86 37L86 36L85 36L85 35L84 35L84 34L83 34L83 32L81 32L81 30L78 30L78 31L80 31L80 32L78 32L78 33L80 33L80 35L79 35L79 34L77 34L77 32L76 32L76 30L74 30L74 31L73 31L73 30L72 30L72 27L71 27L71 26L70 26L70 28L68 28L68 26L69 26L69 25L68 25L68 23L70 23L70 22L71 22L71 21L70 21L70 19L69 19L69 21L70 21L70 22L68 22L68 21L66 21L66 23L65 23L65 24L66 24L66 25L68 25L68 26L64 26L64 27L62 27L62 28L63 28L63 29L64 29L64 30L63 30L63 31L62 31L62 32L61 32L61 28L59 28L59 27L61 27L61 26L63 26L63 25L64 25L64 22L63 22L63 24L58 24L58 23L57 23L57 24L56 24L56 25L57 25L57 26L54 26L54 27L56 27L56 28L55 28L55 29L54 29L54 28L53 28L53 24L54 24L54 23L55 23L55 22L59 22L59 23L60 23L60 22L61 22L61 23L62 23L62 22L61 22L61 21L60 21L60 18L61 18L61 17L60 17L60 16L59 16L59 14L58 14L58 15L57 15L57 14L56 14L56 13L54 13L54 11L55 11L55 10L54 10L54 8L53 8L53 6L54 6L54 7L55 7L55 6L54 6L54 5L52 5L52 11L51 11L51 6L50 6L50 7L49 7L49 8L48 8L48 9L47 9L47 6L46 6L46 5ZM57 5L57 8L60 8L60 5ZM82 5L82 6L83 6L83 5ZM8 6L8 7L9 7L9 6ZM19 6L19 7L20 7L20 6ZM24 6L24 7L25 7L25 6ZM27 6L27 8L28 8L28 6ZM30 6L30 7L31 7L31 6ZM35 6L35 7L36 7L36 6ZM37 6L37 7L38 7L38 6ZM42 6L42 7L43 7L43 6ZM58 6L58 7L59 7L59 6ZM64 6L64 7L63 7L63 9L64 9L64 7L65 7L65 6ZM70 6L70 7L71 7L71 8L72 8L72 7L71 7L71 6ZM6 8L6 9L8 9L8 8ZM11 8L11 9L12 9L12 8ZM49 8L49 9L48 9L48 11L49 11L49 15L50 15L50 16L48 16L48 14L47 14L47 13L48 13L48 12L47 12L47 11L45 11L45 12L46 12L46 13L44 13L44 15L41 15L41 13L40 13L40 14L39 14L39 13L38 13L38 14L37 14L37 13L36 13L36 15L38 15L38 16L39 16L39 17L38 17L38 18L39 18L39 17L40 17L40 18L42 18L42 20L41 20L41 22L42 22L42 23L43 23L43 22L44 22L44 21L43 21L43 17L42 17L42 16L44 16L44 17L45 17L45 16L47 16L47 17L46 17L46 18L48 18L48 19L47 19L47 20L45 20L45 18L44 18L44 20L45 20L45 21L47 21L47 22L45 22L45 23L44 23L44 24L45 24L45 23L49 23L49 24L48 24L48 25L49 25L49 24L50 24L50 26L51 26L51 28L50 28L50 29L48 29L48 31L49 31L49 32L48 32L48 33L47 33L47 34L48 34L48 37L47 37L47 39L48 39L48 40L47 40L47 41L49 41L49 40L50 40L50 39L51 39L51 41L50 41L50 42L46 42L46 41L45 41L45 42L44 42L44 40L45 40L45 39L44 39L44 40L43 40L43 39L42 39L42 40L40 40L40 41L39 41L39 38L38 38L38 37L37 37L37 36L35 36L35 35L36 35L36 34L34 34L34 35L33 35L33 36L35 36L35 38L33 38L33 40L32 40L32 41L31 41L31 42L29 42L29 44L28 44L28 43L26 43L26 41L25 41L25 40L26 40L26 39L25 39L25 40L24 40L24 41L25 41L25 42L24 42L24 45L25 45L25 46L26 46L26 47L27 47L27 48L28 48L28 47L30 47L30 46L32 46L32 45L33 45L33 44L31 44L31 42L33 42L33 41L34 41L34 42L35 42L35 41L34 41L34 40L35 40L35 39L37 39L37 38L38 38L38 40L37 40L37 42L36 42L36 43L35 43L35 45L34 45L34 46L33 46L33 47L31 47L31 48L29 48L29 49L27 49L27 52L26 52L26 53L25 53L25 54L26 54L26 56L25 56L25 57L26 57L26 59L27 59L27 61L28 61L28 58L27 58L27 54L28 54L28 56L30 56L30 55L31 55L31 56L33 56L33 55L34 55L34 57L35 57L35 59L34 59L34 60L33 60L33 61L32 61L32 63L31 63L31 61L30 61L30 63L29 63L29 65L30 65L30 66L29 66L29 67L30 67L30 66L31 66L31 67L32 67L32 68L27 68L27 69L26 69L26 68L25 68L25 69L26 69L26 70L25 70L25 71L26 71L26 70L27 70L27 72L26 72L26 74L28 74L28 73L27 73L27 72L29 72L29 73L31 73L31 72L29 72L29 71L33 71L33 72L34 72L34 73L35 73L35 74L34 74L34 75L35 75L35 74L36 74L36 73L35 73L35 71L38 71L38 69L39 69L39 68L40 68L40 67L38 67L38 66L37 66L37 67L38 67L38 68L37 68L37 70L35 70L35 67L36 67L36 65L37 65L37 64L38 64L38 65L39 65L39 66L42 66L42 67L41 67L41 68L42 68L42 69L43 69L43 70L44 70L44 71L45 71L45 70L46 70L46 69L47 69L47 70L49 70L49 69L50 69L50 68L51 68L51 67L52 67L52 65L51 65L51 67L50 67L50 65L49 65L49 66L47 66L47 68L46 68L46 66L45 66L45 65L46 65L46 64L49 64L49 63L48 63L48 62L47 62L47 61L50 61L50 62L51 62L51 63L50 63L50 64L51 64L51 63L52 63L52 62L51 62L51 60L52 60L52 59L53 59L53 64L54 64L54 65L53 65L53 67L54 67L54 65L56 65L56 67L57 67L57 66L58 66L58 67L60 67L60 66L63 66L63 65L62 65L62 64L63 64L63 62L66 62L66 63L67 63L67 62L66 62L66 61L67 61L67 60L65 60L65 61L62 61L62 64L61 64L61 63L60 63L60 64L58 64L58 62L56 62L56 63L54 63L54 62L55 62L55 61L56 61L56 60L55 60L55 61L54 61L54 59L56 59L56 56L57 56L57 55L56 55L56 54L59 54L59 55L58 55L58 56L60 56L60 55L61 55L61 56L62 56L62 57L61 57L61 58L64 58L64 57L63 57L63 56L62 56L62 54L63 54L63 53L61 53L61 52L60 52L60 53L55 53L55 52L56 52L56 51L57 51L57 52L59 52L59 50L60 50L60 51L63 51L63 50L64 50L64 54L65 54L65 55L64 55L64 56L65 56L65 59L66 59L66 56L68 56L68 57L67 57L67 59L68 59L68 60L70 60L70 59L71 59L71 60L72 60L72 59L71 59L71 58L72 58L72 56L73 56L73 55L72 55L72 53L71 53L71 51L73 51L73 50L72 50L72 49L71 49L71 51L70 51L70 49L69 49L69 48L70 48L70 46L75 46L75 47L73 47L73 48L75 48L75 47L78 47L78 45L79 45L79 47L80 47L80 48L82 48L82 47L83 47L83 46L82 46L82 45L81 45L81 44L80 44L80 43L79 43L79 42L78 42L78 43L79 43L79 44L77 44L77 45L76 45L76 46L75 46L75 45L73 45L73 43L76 43L76 42L77 42L77 40L78 40L78 39L77 39L77 40L76 40L76 39L75 39L75 38L78 38L78 37L75 37L75 38L73 38L73 37L72 37L72 36L74 36L74 35L72 35L72 36L70 36L70 35L71 35L71 34L72 34L72 32L71 32L71 31L72 31L72 30L71 30L71 31L70 31L70 29L71 29L71 28L70 28L70 29L68 29L68 28L67 28L67 30L69 30L69 32L68 32L68 31L67 31L67 32L68 32L68 33L67 33L67 34L66 34L66 30L65 30L65 31L64 31L64 32L65 32L65 34L66 34L66 35L68 35L68 38L69 38L69 39L68 39L68 40L67 40L67 41L69 41L69 43L70 43L70 45L69 45L69 44L68 44L68 42L67 42L67 44L68 44L68 45L67 45L67 47L68 47L68 50L66 50L66 49L67 49L67 48L66 48L66 49L63 49L63 50L60 50L60 49L61 49L61 48L63 48L63 47L61 47L61 46L62 46L62 45L63 45L63 46L64 46L64 47L66 47L66 42L64 42L64 41L65 41L65 40L66 40L66 39L65 39L65 40L64 40L64 41L63 41L63 40L62 40L62 41L60 41L60 42L59 42L59 45L56 45L56 44L53 44L53 43L54 43L54 42L56 42L56 43L57 43L57 44L58 44L58 43L57 43L57 42L56 42L56 41L54 41L54 40L52 40L52 39L53 39L53 38L54 38L54 37L56 37L56 39L55 39L55 40L56 40L56 39L60 39L60 38L59 38L59 36L60 36L60 35L61 35L61 36L63 36L63 35L62 35L62 33L60 33L60 34L59 34L59 35L57 35L57 37L56 37L56 36L54 36L54 37L52 37L52 36L53 36L53 35L52 35L52 32L53 32L53 31L50 31L50 29L51 29L51 28L52 28L52 26L51 26L51 24L53 24L53 23L54 23L54 22L52 22L52 20L51 20L51 23L50 23L50 22L49 22L49 21L47 21L47 20L48 20L48 19L50 19L50 18L49 18L49 17L51 17L51 18L52 18L52 19L53 19L53 21L56 21L56 18L55 18L55 17L57 17L57 16L56 16L56 14L55 14L55 15L54 15L54 18L55 18L55 20L54 20L54 19L53 19L53 13L52 13L52 14L51 14L51 12L50 12L50 11L49 11L49 10L50 10L50 8ZM68 8L68 9L69 9L69 8ZM80 8L80 9L79 9L79 11L80 11L80 9L81 9L81 10L82 10L82 9L81 9L81 8ZM83 9L83 10L84 10L84 9ZM53 10L53 11L52 11L52 12L53 12L53 11L54 11L54 10ZM88 10L88 11L87 11L87 12L88 12L88 11L89 11L89 10ZM15 11L15 12L16 12L16 11ZM25 11L25 12L26 12L26 11ZM28 11L28 12L27 12L27 13L29 13L29 14L27 14L27 15L29 15L29 14L31 14L31 15L30 15L30 16L31 16L31 15L32 15L32 16L33 16L33 15L34 15L34 14L31 14L31 13L32 13L32 11L31 11L31 12L30 12L30 13L29 13L29 11ZM76 11L76 12L77 12L77 11ZM91 12L91 13L92 13L92 12ZM5 13L5 15L8 15L8 16L9 16L9 17L10 17L10 15L8 15L8 14L6 14L6 13ZM9 13L9 14L10 14L10 13ZM25 13L25 14L24 14L24 15L26 15L26 13ZM63 13L63 14L64 14L64 13ZM89 13L89 14L88 14L88 15L87 15L87 14L86 14L86 16L85 16L85 19L83 19L83 20L85 20L85 19L86 19L86 18L87 18L87 17L86 17L86 16L88 16L88 15L89 15L89 16L90 16L90 17L91 17L91 18L92 18L92 15L91 15L91 16L90 16L90 13ZM13 14L13 16L14 16L14 14ZM38 14L38 15L39 15L39 14ZM45 14L45 15L44 15L44 16L45 16L45 15L47 15L47 14ZM50 14L50 15L51 15L51 14ZM40 15L40 17L41 17L41 15ZM6 16L6 17L7 17L7 16ZM20 16L20 17L18 17L18 18L17 18L17 20L15 20L15 19L14 19L14 20L13 20L13 22L12 22L12 23L9 23L9 22L8 22L8 21L7 21L7 22L6 22L6 23L8 23L8 24L9 24L9 27L10 27L10 24L11 24L11 26L13 26L13 25L15 25L15 23L13 23L13 22L14 22L14 20L15 20L15 21L16 21L16 22L18 22L18 21L17 21L17 20L18 20L18 19L19 19L19 20L20 20L20 22L21 22L21 20L22 20L22 17L21 17L21 16ZM23 16L23 17L25 17L25 16ZM26 16L26 19L25 19L25 21L24 21L24 18L23 18L23 22L24 22L24 23L26 23L26 21L27 21L27 22L28 22L28 21L27 21L27 20L26 20L26 19L28 19L28 18L27 18L27 16ZM58 17L58 18L57 18L57 19L58 19L58 20L57 20L57 21L59 21L59 19L58 19L58 18L60 18L60 17ZM1 18L1 19L2 19L2 18ZM19 18L19 19L20 19L20 20L21 20L21 19L20 19L20 18ZM88 18L88 19L87 19L87 20L86 20L86 21L85 21L85 24L86 24L86 27L85 27L85 28L87 28L87 24L88 24L88 23L89 23L89 22L90 22L90 23L92 23L92 22L91 22L91 20L90 20L90 19L89 19L89 18ZM87 20L87 21L86 21L86 24L87 24L87 23L88 23L88 22L89 22L89 21L90 21L90 20ZM39 21L39 22L40 22L40 21ZM73 21L73 22L75 22L75 23L76 23L76 22L75 22L75 21ZM87 21L87 22L88 22L88 21ZM12 23L12 24L13 24L13 23ZM66 23L66 24L67 24L67 23ZM73 23L73 24L74 24L74 23ZM57 24L57 25L58 25L58 24ZM89 24L89 26L88 26L88 27L89 27L89 26L90 26L90 25L92 25L92 24ZM33 25L33 26L34 26L34 27L35 27L35 28L37 28L37 25ZM21 26L21 28L22 28L22 30L21 30L21 29L20 29L20 31L17 31L17 32L15 32L15 33L17 33L17 32L20 32L20 31L22 31L22 34L24 34L24 33L25 33L25 32L23 32L23 31L24 31L24 30L25 30L25 29L28 29L28 28L25 28L25 29L24 29L24 30L23 30L23 28L22 28L22 26ZM82 26L82 28L83 28L83 26ZM13 27L13 28L14 28L14 27ZM47 27L47 28L49 28L49 27ZM57 27L57 28L58 28L58 27ZM65 27L65 28L64 28L64 29L65 29L65 28L66 28L66 27ZM91 27L91 29L92 29L92 27ZM2 29L2 30L4 30L4 29ZM5 29L5 32L8 32L8 29ZM9 29L9 30L11 30L11 29ZM13 29L13 30L14 30L14 29ZM29 29L29 32L32 32L32 29ZM42 29L42 31L43 31L43 29ZM52 29L52 30L53 30L53 29ZM55 29L55 31L56 31L56 29ZM57 29L57 32L60 32L60 29ZM85 29L85 32L88 32L88 29ZM6 30L6 31L7 31L7 30ZM22 30L22 31L23 31L23 30ZM26 30L26 33L27 33L27 30ZM30 30L30 31L31 31L31 30ZM58 30L58 31L59 31L59 30ZM86 30L86 31L87 31L87 30ZM50 32L50 33L49 33L49 34L50 34L50 33L51 33L51 32ZM55 32L55 33L56 33L56 34L55 34L55 35L56 35L56 34L58 34L58 33L56 33L56 32ZM69 32L69 33L68 33L68 34L69 34L69 33L70 33L70 34L71 34L71 32ZM74 32L74 33L73 33L73 34L74 34L74 33L75 33L75 32ZM80 32L80 33L81 33L81 35L83 35L83 34L82 34L82 33L81 33L81 32ZM92 32L92 33L93 33L93 32ZM53 33L53 34L54 34L54 33ZM5 34L5 35L7 35L7 34ZM11 34L11 35L10 35L10 38L9 38L9 37L8 37L8 36L6 36L6 37L8 37L8 38L9 38L9 39L8 39L8 41L9 41L9 42L10 42L10 41L9 41L9 40L10 40L10 39L11 39L11 37L12 37L12 38L14 38L14 37L13 37L13 35L12 35L12 34ZM19 34L19 35L20 35L20 34ZM76 34L76 35L77 35L77 34ZM88 34L88 35L89 35L89 34ZM92 34L92 35L93 35L93 34ZM25 35L25 36L26 36L26 35ZM44 35L44 37L45 37L45 38L46 38L46 37L45 37L45 35ZM49 35L49 36L50 36L50 37L49 37L49 38L48 38L48 39L49 39L49 38L51 38L51 39L52 39L52 37L51 37L51 35ZM64 35L64 37L63 37L63 38L61 38L61 39L63 39L63 38L66 38L66 37L65 37L65 35ZM69 36L69 37L70 37L70 40L69 40L69 41L70 41L70 43L71 43L71 44L72 44L72 43L73 43L73 42L72 42L72 40L73 40L73 41L74 41L74 42L75 42L75 41L76 41L76 40L75 40L75 39L72 39L72 37L70 37L70 36ZM80 36L80 37L81 37L81 38L79 38L79 39L81 39L81 40L82 40L82 41L83 41L83 40L82 40L82 38L83 38L83 39L84 39L84 37L82 37L82 36ZM42 37L42 38L43 38L43 37ZM86 38L86 39L87 39L87 38ZM12 39L12 40L11 40L11 41L12 41L12 42L11 42L11 43L14 43L14 42L13 42L13 41L14 41L14 40L13 40L13 39ZM21 39L21 40L20 40L20 43L21 43L21 45L19 45L19 47L20 47L20 46L21 46L21 45L22 45L22 43L23 43L23 42L22 42L22 43L21 43L21 41L23 41L23 40L22 40L22 39ZM0 40L0 41L1 41L1 40ZM12 40L12 41L13 41L13 40ZM42 40L42 42L43 42L43 44L42 44L42 43L41 43L41 42L40 42L40 45L41 45L41 46L42 46L42 47L43 47L43 48L41 48L41 47L40 47L40 46L39 46L39 45L37 45L37 46L36 46L36 47L34 47L34 50L32 50L32 49L33 49L33 48L32 48L32 49L29 49L29 50L28 50L28 52L27 52L27 53L26 53L26 54L27 54L27 53L28 53L28 52L29 52L29 54L32 54L32 53L33 53L33 54L34 54L34 53L37 53L37 54L35 54L35 55L36 55L36 57L37 57L37 59L35 59L35 60L37 60L37 61L36 61L36 63L33 63L33 64L30 64L30 65L31 65L31 66L33 66L33 65L35 65L35 64L36 64L36 63L37 63L37 61L38 61L38 60L41 60L41 62L39 62L39 63L38 63L38 64L40 64L40 65L42 65L42 66L44 66L44 67L42 67L42 68L43 68L43 69L45 69L45 68L44 68L44 67L45 67L45 66L44 66L44 65L45 65L45 64L44 64L44 65L43 65L43 60L41 60L41 59L40 59L40 57L41 57L41 55L40 55L40 53L41 53L41 54L42 54L42 55L45 55L45 56L42 56L42 57L43 57L43 58L42 58L42 59L43 59L43 58L44 58L44 59L46 59L46 60L47 60L47 59L48 59L48 60L51 60L51 57L49 57L49 55L50 55L50 56L53 56L53 58L55 58L55 56L53 56L53 55L51 55L51 54L54 54L54 55L55 55L55 54L54 54L54 53L52 53L52 52L55 52L55 51L54 51L54 50L57 50L57 51L58 51L58 50L59 50L59 49L60 49L60 48L61 48L61 47L60 47L60 46L61 46L61 45L62 45L62 44L63 44L63 45L64 45L64 46L65 46L65 43L64 43L64 42L63 42L63 43L61 43L61 42L60 42L60 44L61 44L61 45L60 45L60 46L59 46L59 47L58 47L58 46L54 46L54 45L53 45L53 46L52 46L52 42L51 42L51 43L50 43L50 44L49 44L49 43L48 43L48 44L49 44L49 45L48 45L48 46L46 46L46 45L47 45L47 44L46 44L46 43L45 43L45 44L44 44L44 42L43 42L43 40ZM70 40L70 41L71 41L71 40ZM89 40L89 41L88 41L88 42L89 42L89 41L90 41L90 40ZM53 41L53 42L54 42L54 41ZM6 42L6 43L7 43L7 42ZM38 42L38 44L39 44L39 42ZM71 42L71 43L72 43L72 42ZM36 43L36 44L37 44L37 43ZM63 43L63 44L64 44L64 43ZM6 44L6 45L7 45L7 44ZM25 44L25 45L26 45L26 44ZM27 44L27 45L28 45L28 44ZM30 44L30 45L29 45L29 46L30 46L30 45L31 45L31 44ZM41 44L41 45L42 45L42 44ZM79 44L79 45L80 45L80 46L81 46L81 45L80 45L80 44ZM3 45L3 46L4 46L4 45ZM68 45L68 46L69 46L69 45ZM43 46L43 47L44 47L44 48L43 48L43 50L42 50L42 49L40 49L40 47L37 47L37 48L39 48L39 49L36 49L36 48L35 48L35 51L36 51L36 52L38 52L38 53L40 53L40 51L41 51L41 53L43 53L43 54L45 54L45 55L48 55L48 54L50 54L50 51L53 51L53 50L52 50L52 46L51 46L51 47L49 47L49 46L48 46L48 47L46 47L46 46ZM53 46L53 48L55 48L55 49L56 49L56 48L58 48L58 47L54 47L54 46ZM59 47L59 48L60 48L60 47ZM71 47L71 48L72 48L72 47ZM48 48L48 49L49 49L49 51L50 51L50 50L51 50L51 49L50 49L50 48ZM18 49L18 50L19 50L19 49ZM44 49L44 50L43 50L43 51L44 51L44 52L45 52L45 54L48 54L48 53L49 53L49 52L48 52L48 53L47 53L47 52L45 52L45 51L47 51L47 49L46 49L46 50L45 50L45 49ZM2 50L2 51L3 51L3 50ZM29 50L29 52L30 52L30 53L32 53L32 52L33 52L33 51L31 51L31 50ZM36 50L36 51L38 51L38 52L39 52L39 51L40 51L40 50ZM41 50L41 51L42 51L42 50ZM44 50L44 51L45 51L45 50ZM65 50L65 51L66 51L66 52L65 52L65 54L66 54L66 55L68 55L68 56L69 56L69 57L68 57L68 59L69 59L69 57L70 57L70 58L71 58L71 57L70 57L70 56L69 56L69 54L66 54L66 53L67 53L67 51L66 51L66 50ZM6 51L6 52L7 52L7 51ZM30 51L30 52L31 52L31 51ZM68 52L68 53L70 53L70 55L71 55L71 53L70 53L70 52ZM89 52L89 53L90 53L90 52ZM60 53L60 54L61 54L61 53ZM10 54L10 55L11 55L11 54ZM38 54L38 56L39 56L39 57L38 57L38 59L37 59L37 60L38 60L38 59L39 59L39 57L40 57L40 56L39 56L39 54ZM45 56L45 57L44 57L44 58L45 58L45 57L46 57L46 56ZM47 56L47 57L48 57L48 59L50 59L50 58L49 58L49 57L48 57L48 56ZM74 56L74 57L73 57L73 58L74 58L74 60L73 60L73 61L74 61L74 60L75 60L75 58L76 58L76 57L75 57L75 56ZM89 56L89 57L91 57L91 56ZM5 57L5 60L8 60L8 57ZM10 57L10 58L13 58L13 57ZM29 57L29 60L32 60L32 57ZM57 57L57 60L60 60L60 57ZM85 57L85 60L88 60L88 57ZM6 58L6 59L7 59L7 58ZM24 58L24 59L25 59L25 58ZM30 58L30 59L31 59L31 58ZM46 58L46 59L47 59L47 58ZM58 58L58 59L59 59L59 58ZM80 58L80 59L81 59L81 58ZM86 58L86 59L87 59L87 58ZM89 58L89 59L90 59L90 58ZM91 58L91 59L92 59L92 58ZM3 59L3 60L1 60L1 61L4 61L4 59ZM19 59L19 60L20 60L20 59ZM61 59L61 60L62 60L62 59ZM44 60L44 61L45 61L45 60ZM90 60L90 61L87 61L87 62L86 62L86 61L85 61L85 62L86 62L86 63L87 63L87 64L88 64L88 63L89 63L89 64L90 64L90 61L91 61L91 60ZM14 61L14 62L15 62L15 61ZM23 61L23 62L24 62L24 64L25 64L25 62L24 62L24 61ZM34 61L34 62L35 62L35 61ZM81 61L81 62L80 62L80 63L81 63L81 62L82 62L82 63L84 63L84 62L83 62L83 61ZM1 62L1 63L4 63L4 62ZM44 62L44 63L45 63L45 62ZM46 62L46 63L47 63L47 62ZM70 62L70 63L71 63L71 62ZM87 62L87 63L88 63L88 62ZM21 63L21 64L19 64L19 65L22 65L22 63ZM41 63L41 64L42 64L42 63ZM6 64L6 65L7 65L7 64ZM12 64L12 65L14 65L14 64ZM60 64L60 65L59 65L59 66L60 66L60 65L61 65L61 64ZM64 64L64 65L66 65L66 64ZM67 64L67 65L68 65L68 64ZM87 65L87 66L88 66L88 65ZM10 66L10 67L11 67L11 66ZM18 66L18 67L19 67L19 66ZM20 66L20 67L21 67L21 66ZM79 66L79 67L78 67L78 71L77 71L77 73L78 73L78 74L79 74L79 76L80 76L80 77L82 77L82 79L84 79L84 78L83 78L83 77L82 77L82 76L80 76L80 74L81 74L81 73L80 73L80 71L81 71L81 70L80 70L80 71L79 71L79 69L80 69L80 68L81 68L81 67L80 67L80 66ZM90 66L90 67L87 67L87 68L86 68L86 69L85 69L85 72L88 72L88 74L89 74L89 76L90 76L90 73L91 73L91 72L90 72L90 73L89 73L89 71L86 71L86 70L88 70L88 69L89 69L89 68L90 68L90 69L91 69L91 68L90 68L90 67L91 67L91 66ZM5 67L5 68L7 68L7 67ZM48 67L48 69L49 69L49 67ZM79 67L79 68L80 68L80 67ZM10 68L10 69L11 69L11 70L12 70L12 71L10 71L10 70L9 70L9 73L10 73L10 72L13 72L13 70L12 70L12 68ZM32 68L32 69L33 69L33 68ZM57 68L57 69L58 69L58 68ZM73 68L73 70L75 70L75 68ZM87 68L87 69L88 69L88 68ZM30 69L30 70L31 70L31 69ZM61 69L61 70L62 70L62 69ZM68 69L68 71L69 71L69 69ZM6 70L6 71L8 71L8 70ZM33 70L33 71L34 71L34 70ZM39 70L39 71L40 71L40 72L39 72L39 74L38 74L38 75L36 75L36 76L38 76L38 77L39 77L39 76L41 76L41 75L42 75L42 74L44 74L44 75L45 75L45 74L47 74L47 73L46 73L46 72L45 72L45 74L44 74L44 72L43 72L43 71L42 71L42 70ZM3 71L3 72L4 72L4 73L5 73L5 72L4 72L4 71ZM22 71L22 72L23 72L23 71ZM70 71L70 72L71 72L71 71ZM73 71L73 72L74 72L74 71ZM6 72L6 73L7 73L7 74L8 74L8 72ZM17 72L17 74L18 74L18 72ZM24 72L24 73L25 73L25 72ZM37 72L37 73L38 73L38 72ZM40 72L40 73L41 73L41 74L42 74L42 73L41 73L41 72ZM12 73L12 74L13 74L13 73ZM20 73L20 74L22 74L22 73ZM79 73L79 74L80 74L80 73ZM39 74L39 75L40 75L40 74ZM92 75L92 76L93 76L93 75ZM21 76L21 77L22 77L22 76ZM25 76L25 77L26 77L26 76ZM69 76L69 77L70 77L70 76ZM0 77L0 79L1 79L1 80L0 80L0 82L1 82L1 81L2 81L2 82L3 82L3 81L4 81L4 80L5 80L5 78L1 78L1 77ZM14 77L14 79L15 79L15 77ZM35 77L35 78L37 78L37 77ZM56 77L56 78L57 78L57 77ZM62 77L62 81L61 81L61 82L62 82L62 81L63 81L63 82L64 82L64 81L63 81L63 77ZM74 77L74 78L75 78L75 77ZM87 77L87 78L88 78L88 77ZM2 79L2 81L3 81L3 79ZM49 79L49 80L50 80L50 79ZM52 79L52 81L53 81L53 79ZM60 79L60 80L61 80L61 79ZM41 80L41 82L42 82L42 80ZM54 80L54 82L56 82L56 83L59 83L59 82L56 82L56 80ZM77 80L77 81L80 81L80 83L81 83L81 81L80 81L80 80ZM90 80L90 81L89 81L89 82L88 82L88 83L87 83L87 84L88 84L88 83L89 83L89 82L90 82L90 81L91 81L91 80ZM23 81L23 83L24 83L24 81ZM12 82L12 83L14 83L14 82ZM38 82L38 83L39 83L39 82ZM6 83L6 84L7 84L7 83ZM19 83L19 84L20 84L20 83ZM61 83L61 84L62 84L62 85L61 85L61 89L57 89L57 91L58 91L58 90L59 90L59 91L60 91L60 92L61 92L61 91L62 91L62 89L63 89L63 90L64 90L64 89L65 89L65 88L66 88L66 87L64 87L64 89L63 89L63 84L62 84L62 83ZM66 83L66 84L67 84L67 83ZM70 83L70 84L71 84L71 83ZM27 84L27 85L28 85L28 84ZM64 84L64 85L65 85L65 86L66 86L66 85L65 85L65 84ZM21 85L21 87L20 87L20 88L18 88L18 89L20 89L20 90L21 90L21 88L22 88L22 89L23 89L23 87L24 87L24 86L23 86L23 87L22 87L22 85ZM29 85L29 88L32 88L32 85ZM33 85L33 88L34 88L34 85ZM57 85L57 88L60 88L60 85ZM70 85L70 87L71 87L71 85ZM75 85L75 86L73 86L73 88L74 88L74 87L75 87L75 86L78 86L78 85ZM79 85L79 87L80 87L80 88L79 88L79 89L80 89L80 90L81 90L81 92L82 92L82 89L83 89L83 88L82 88L82 86L84 86L84 85L81 85L81 86L80 86L80 85ZM85 85L85 88L88 88L88 85ZM18 86L18 87L19 87L19 86ZM30 86L30 87L31 87L31 86ZM42 86L42 88L43 88L43 89L44 89L44 90L45 90L45 89L44 89L44 88L45 88L45 86ZM58 86L58 87L59 87L59 86ZM86 86L86 87L87 87L87 86ZM15 87L15 89L14 89L14 88L12 88L12 89L13 89L13 93L16 93L16 92L17 92L17 91L18 91L18 90L15 90L15 89L16 89L16 88L17 88L17 87ZM37 87L37 88L38 88L38 87ZM43 87L43 88L44 88L44 87ZM9 88L9 89L10 89L10 88ZM25 88L25 89L26 89L26 88ZM35 88L35 89L36 89L36 88ZM76 88L76 89L72 89L72 90L71 90L71 91L72 91L72 92L73 92L73 91L76 91L76 89L77 89L77 88ZM80 88L80 89L82 89L82 88ZM28 89L28 90L27 90L27 91L26 91L26 92L27 92L27 91L28 91L28 90L29 90L29 89ZM32 89L32 90L33 90L33 89ZM37 89L37 90L36 90L36 91L35 91L35 90L34 90L34 92L36 92L36 91L37 91L37 90L38 90L38 91L40 91L40 90L38 90L38 89ZM84 89L84 90L86 90L86 91L87 91L87 92L88 92L88 91L87 91L87 90L89 90L89 89ZM48 90L48 91L49 91L49 90ZM55 90L55 91L54 91L54 92L55 92L55 91L56 91L56 90ZM60 90L60 91L61 91L61 90ZM66 90L66 91L67 91L67 90ZM72 90L72 91L73 91L73 90ZM15 91L15 92L16 92L16 91ZM0 0L0 7L7 7L7 0ZM1 1L1 6L6 6L6 1ZM2 2L2 5L5 5L5 2ZM86 0L86 7L93 7L93 0ZM87 1L87 6L92 6L92 1ZM88 2L88 5L91 5L91 2ZM0 86L0 93L7 93L7 86ZM1 87L1 92L6 92L6 87ZM2 88L2 91L5 91L5 88Z" fill="#0d42ff"/></g></g></svg>
